<?xml version="1.0" encoding="UTF-8"?>
<svg id="Layer_1" data-name="Layer 1" xmlns="http://www.w3.org/2000/svg" xmlns:xlink="http://www.w3.org/1999/xlink" viewBox="0 0 1890.91 495.84">
  <defs>
    <style>
      .cls-1 {
        fill: none;
      }

      .cls-2 {
        clip-path: url(#clippath);
      }

      .cls-3 {
        fill: #aa8e60;
      }
    </style>
    <clipPath id="clippath">
      <rect class="cls-1" width="1890.91" height="495.84"/>
    </clipPath>
  </defs>
  <g class="cls-2">
    <path class="cls-3" d="M953.6,183.63c0,4.07-3.3,7.37-7.37,7.37s-7.37-3.3-7.37-7.37,3.3-7.37,7.37-7.37,7.37,3.3,7.37,7.37M33.56,168.89c0,4.07-3.3,7.37-7.37,7.37s-7.37-3.3-7.37-7.37,3.3-7.37,7.37-7.37,7.37,3.3,7.37,7.37M14.74,168.89c0,4.07-3.3,7.37-7.37,7.37S0,172.96,0,168.89s3.3-7.37,7.37-7.37,7.37,3.3,7.37,7.37M1106.93,244.43c0,4.07-3.3,7.37-7.37,7.37s-7.37-3.3-7.37-7.37,3.3-7.37,7.37-7.37,7.37,3.3,7.37,7.37M97.29,244.43c0,4.07-3.3,7.37-7.37,7.37s-7.37-3.3-7.37-7.37,3.3-7.37,7.37-7.37,7.37,3.3,7.37,7.37M1088.09,244.43c0,4.07-3.3,7.37-7.37,7.37s-7.37-3.3-7.37-7.37,3.3-7.37,7.37-7.37,7.37,3.3,7.37,7.37M41.35,216.79h-9.01c-7.16,0-11.26-4.91-11.26-10.85s4.09-10.85,11.26-10.85h9.01v21.7ZM185.32,183.63v33.16h-10.23v-33.16h-13.51v33.16h-10.24v-33.16h-13.51v33.16h-41.15v-33.16h-13.51v33.16h-28.31v-47.9h-13.51v12.69h-9.01c-14.74,0-24.97,11.06-24.97,24.36s10.23,24.36,24.97,24.36h166.49v-46.67h-13.51ZM909.79,327.67c-10.85,0-18.83-7.57-18.83-18.63s7.98-18.63,18.83-18.63,18.83,7.37,18.83,18.63c0,10.64-7.78,18.63-18.83,18.63M909.79,276.7c-18.01,0-32.14,13.1-32.14,32.34s13.72,32.14,32.14,32.14,32.34-12.9,32.34-32.14-14.13-32.34-32.34-32.34M954.22,278.54h50.36v13.51h-37.05v10.23h36.03v13.51h-36.03v23.54h-13.31v-60.8ZM702.01,278.54h13.51v35.21c0,16.79-12.08,27.43-27.23,27.43s-27.02-10.64-27.02-27.43v-35.21h13.51v34.8c0,9.21,6.14,14.33,13.51,14.33s13.72-5.12,13.72-14.33v-34.8ZM763.02,304.75h-20.27v-12.69h20.27c5.12,0,7.98,2.66,7.98,6.55,0,3.68-2.87,6.14-7.98,6.14M784.51,298.4c0-10.64-7.57-19.86-22.11-19.86h-33.16v60.8h13.51v-20.88h17.81l10.85,20.88h15.15l-12.69-23.54c6.96-3.28,10.64-10.03,10.64-17.4M792.08,278.54h54.25v13.51h-20.47v47.29h-13.31v-47.29h-20.47v-13.51ZM617.67,327.67c-10.85,0-18.83-7.57-18.83-18.63s7.98-18.63,18.83-18.63,18.83,7.37,18.83,18.63c0,10.64-7.98,18.63-18.83,18.63M617.67,276.7c-18.01,0-32.34,13.1-32.34,32.34s13.92,32.14,32.34,32.14,32.35-12.9,32.35-32.14-14.33-32.34-32.35-32.34M97.03,325.83h40.53v13.51h-54.04v-60.8h53.43v13.51h-39.92v10.23h39.51v13.51h-39.51v10.03ZM198.98,278.54h13.51v60.8h-22.31l-24.77-48.31v48.31h-13.51v-60.8h21.9l25.18,49.13v-49.13ZM20.88,309.04c0,11.05,7.57,18.63,18.63,18.63,8.39,0,13.51-4.09,16.17-9.62h-15.97v-12.69h28.46v33.98h-12.08v-4.71c-3.68,3.48-10.03,6.55-17.2,6.55-17.6,0-31.52-12.9-31.52-32.14s14.33-32.34,32.14-32.34c12.9,0,23.95,6.35,29.07,18.83l-12.49,5.32c-3.27-6.55-8.8-10.44-16.58-10.44-11.05,0-18.63,7.78-18.63,18.63M240.74,325.83h40.53v13.51h-53.84v-60.8h53.43v13.51h-40.12v10.23h39.71v13.51h-39.71v10.03ZM449.14,325.83h34.39v13.51h-47.7v-60.8h13.31v47.29ZM564.45,315.8l12.28,5.32c-5.12,12.9-15.76,20.06-29.68,20.06-18.42,0-32.34-12.9-32.34-32.14s14.33-32.34,31.93-32.34c13.72,0,24.57,7.16,29.68,19.65l-12.49,5.32c-3.27-6.96-9.21-11.26-17.2-11.26-10.85,0-18.42,7.78-18.42,18.63s7.57,18.63,18.42,18.63c8.39,0,14.74-4.71,17.81-11.87M383.42,311.91l9.01-23.54,9.01,23.54h-18.02ZM381.79,278.54l-23.54,60.8h14.74l5.32-13.72h28.05l5.53,13.72h14.74l-23.34-60.8h-21.5ZM329.17,304.75h-20.27v-12.69h20.27c5.32,0,7.98,2.66,7.98,6.55,0,3.68-2.66,6.14-7.98,6.14M350.67,298.4c0-10.64-7.57-19.86-22.11-19.86h-32.96v60.8h13.31v-20.88h18.02l10.64,20.88h15.15l-12.69-23.54c7.16-3.28,10.64-10.03,10.64-17.4M1249,278.54h13.51v60.8h-13.51v-60.8ZM1060.87,311.91l9.21-23.54,8.8,23.54h-18.01ZM1059.23,278.54l-23.54,60.8h14.74l5.53-13.72h28.05l5.53,13.72h14.54l-23.34-60.8h-21.49ZM1272.75,278.54h54.25v13.51h-20.47v47.29h-13.31v-47.29h-20.47v-13.51ZM1206.83,325.83h-14.74v-33.78h14.74c9.82,0,16.79,6.96,16.79,16.99s-6.96,16.79-16.79,16.79M1207.44,278.54h-28.86v60.8h28.04c11.47,0,30.5-6.96,30.5-30.3s-18.22-30.5-29.68-30.5M1151.56,278.54h13.31v35.21c0,16.79-12.08,27.43-27.02,27.43s-27.23-10.64-27.23-27.43v-35.21h13.72v34.8c0,9.21,5.94,14.33,13.51,14.33s13.72-5.12,13.72-14.33v-34.8ZM991.26,168.89h13.51v61.41h-13.51v-61.41ZM879.49,230.3h-13.51v-61.41h13.51v61.41ZM946.23,252.82c-17.61,0-31.73-14.12-31.73-31.73v-4.3h13.51v4.3c0,10.03,8.19,18.22,18.22,18.22s18.22-8.19,18.22-18.22v-37.46h13.51v37.46c0,17.61-14.13,31.73-31.73,31.73M839.16,168.89h13.51v61.41h-215.35v-61.41h13.51v47.9h125.9l-16.99-33.16h15.97l12.9,24.56,12.9-24.56h15.97l-17.2,33.16h38.9v-47.9ZM1326.99,230.3h-13.51v-61.41h13.51v61.41ZM1300.17,230.3h-180.96v-13.51h124.05c3.48,0,6.35-2.86,6.35-6.34s-2.87-6.35-6.35-6.35h-117.3v-20.47h13.51v6.96h103.79c11.05,0,20.06,9.01,20.06,19.86,0,2.21-.39,4.34-1.08,6.34h24.42v-47.9h13.51v61.41ZM1052.27,216.79h-10.03c-7.16,0-11.26-4.91-11.26-10.85s4.91-10.85,10.64-10.85,10.64,4.91,10.64,10.85v10.85ZM1093.41,216.79h-27.43v-10.85c0-13.31-10.85-24.36-24.36-24.36s-24.36,11.06-24.36,24.36,10.23,24.36,24.97,24.36h10.12c-.62,5.08-4.02,9.01-12.99,9.01h-8.39v13.51h8.39c16.78,0,25.73-10.05,26.53-22.52h41.02v-46.67h-13.51v33.16ZM444.28,199.19c6.35,0,11.67,5.32,11.67,11.87s-5.32,11.87-11.67,11.87-11.67-5.32-11.67-11.87,5.32-11.87,11.67-11.87M394.53,238.08l7.78-7.78h25.52c4.44,3.81,10.19,6.14,16.45,6.14s12.11-2.33,16.53-6.14h73.13v-61.41h-13.51v47.9h-13.51v-47.9h-13.51v47.9h-24.42c.43-1.85.68-3.76.68-5.73,0-13.92-11.26-25.38-25.38-25.38s-25.38,11.46-25.38,25.38c0,1.97.25,3.88.69,5.73h-25.87l-43.4-43.4-10.23,10.24,33.16,33.16h-147.6v-47.9h-13.51v61.41h174.62l7.78,7.78ZM599.47,195.09c6.35,0,11.67,5.32,11.67,11.87s-5.32,11.87-11.67,11.87-11.67-5.32-11.67-11.87,5.32-11.87,11.67-11.87M599.47,232.35c14.13,0,25.38-11.46,25.38-25.38s-11.26-25.38-25.38-25.38-25.38,11.46-25.38,25.38v21.49c0,5.94-3.07,10.85-13.1,10.85h-2.25v13.51h2.25c17.21,0,26.18-10.57,26.57-23.48,3.56,1.92,7.62,3.01,11.91,3.01M1758.85,80.09c1.59,0,2.88,1.29,2.88,2.88s-1.29,2.88-2.88,2.88-2.88-1.29-2.88-2.88,1.29-2.88,2.88-2.88M1821.13,222.56c-1.59,0-2.88-1.29-2.88-2.88s1.29-2.88,2.88-2.88,2.88,1.29,2.88,2.88-1.29,2.88-2.88,2.88M1549.82,258.45c-1.59,0-2.88-1.29-2.88-2.88s1.29-2.88,2.88-2.88,2.88,1.29,2.88,2.88-1.29,2.88-2.88,2.88M1431.83,223.37c0,1.59-1.29,2.88-2.88,2.88s-2.88-1.29-2.88-2.88,1.29-2.88,2.88-2.88,2.88,1.29,2.88,2.88M1561.72,384.37c0-1.59,1.29-2.88,2.88-2.88s2.88,1.29,2.88,2.88-1.29,2.88-2.88,2.88-2.88-1.29-2.88-2.88M1740.62,389.64c0,1.59-1.29,2.88-2.88,2.88s-2.88-1.29-2.88-2.88,1.29-2.88,2.88-2.88,2.88,1.29,2.88,2.88M1664.37,279.09c1.59,0,2.88,1.29,2.88,2.88s-1.29,2.88-2.88,2.88-2.88-1.29-2.88-2.88,1.29-2.88,2.88-2.88M1697.38,272.99c0-1.59,1.29-2.88,2.88-2.88s2.88,1.29,2.88,2.88-1.29,2.88-2.88,2.88-2.88-1.29-2.88-2.88M1599.2,28.6c0-1.59,1.29-2.88,2.88-2.88s2.88,1.29,2.88,2.88-1.29,2.88-2.88,2.88-2.88-1.29-2.88-2.88M1834.57,285.13c0,1.59-1.29,2.88-2.88,2.88s-2.88-1.29-2.88-2.88,1.29-2.88,2.88-2.88,2.88,1.29,2.88,2.88M1413.35,324.19c0,1.59-1.29,2.88-2.88,2.88s-2.88-1.29-2.88-2.88,1.29-2.88,2.88-2.88,2.88,1.29,2.88,2.88M1663.31,318.67c1.59,0,2.88,1.29,2.88,2.88s-1.29,2.88-2.88,2.88-2.88-1.29-2.88-2.88,1.29-2.88,2.88-2.88M1852.52,316.8c0,1.59-1.29,2.88-2.88,2.88s-2.88-1.29-2.88-2.88,1.29-2.88,2.88-2.88,2.88,1.29,2.88,2.88M1741.96,261.67c1.59,0,2.88,1.29,2.88,2.88s-1.29,2.88-2.88,2.88-2.88-1.29-2.88-2.88,1.29-2.88,2.88-2.88M1696.8,489.41c0,1.59-1.29,2.88-2.88,2.88s-2.88-1.29-2.88-2.88,1.29-2.88,2.88-2.88,2.88,1.29,2.88,2.88M1734.81,426.07c0,1.59-1.29,2.88-2.88,2.88s-2.88-1.29-2.88-2.88,1.29-2.88,2.88-2.88,2.88,1.29,2.88,2.88M1437.68,110.94c0-1.59,1.29-2.88,2.88-2.88s2.88,1.29,2.88,2.88-1.29,2.88-2.88,2.88-2.88-1.29-2.88-2.88M1529.24,400.44c-1.59,0-2.88-1.29-2.88-2.88s1.29-2.88,2.88-2.88c1.03,0,1.93.54,2.44,1.35.66-3.3,3.57-5.79,7.06-5.79,3.98,0,7.2,3.22,7.2,7.2s-3.22,7.2-7.2,7.2c-3.43,0-6.3-2.41-7.02-5.62-.5.85-1.42,1.42-2.48,1.42M1644.02,481.49c0,1.59-1.29,2.88-2.88,2.88s-2.88-1.29-2.88-2.88,1.29-2.88,2.88-2.88,2.88,1.29,2.88,2.88M1781.79,377.51c0,1.59-1.29,2.88-2.88,2.88s-2.88-1.29-2.88-2.88,1.29-2.88,2.88-2.88,2.88,1.29,2.88,2.88M1512.35,321.27c-1.59,0-2.88-1.29-2.88-2.88s1.29-2.88,2.88-2.88,2.88,1.29,2.88,2.88-1.29,2.88-2.88,2.88M1710.53,184.84c0,1.59-1.29,2.88-2.88,2.88s-2.88-1.29-2.88-2.88,1.29-2.88,2.88-2.88,2.88,1.29,2.88,2.88M1458.75,393.34c0,1.59-1.29,2.88-2.88,2.88s-2.88-1.29-2.88-2.88,1.29-2.88,2.88-2.88,2.88,1.29,2.88,2.88M1488.07,150.82c1.59,0,2.88,1.29,2.88,2.88s-1.29,2.88-2.88,2.88-2.88-1.29-2.88-2.88,1.29-2.88,2.88-2.88M1783.42,205.43c0-1.59,1.29-2.88,2.88-2.88s2.88,1.29,2.88,2.88-1.29,2.88-2.88,2.88-2.88-1.29-2.88-2.88M1678.9,20.16c0-1.59,1.29-2.88,2.88-2.88s2.88,1.29,2.88,2.88-1.29,2.88-2.88,2.88-2.88-1.29-2.88-2.88M1413.64,268.53c1.59,0,2.88,1.29,2.88,2.88s-1.29,2.88-2.88,2.88-2.88-1.29-2.88-2.88,1.29-2.88,2.88-2.88M1539.06,171.17c-.59-.74-.94-1.68-.94-2.69,0-2.39,1.93-4.32,4.32-4.32s4.32,1.93,4.32,4.32c0,2.19-1.62,3.99-3.73,4.28.12.31.18.65.18,1,0,1.59-1.29,2.88-2.88,2.88s-2.88-1.29-2.88-2.88c0-1.14.66-2.12,1.62-2.58M1479.86,355.86c0,1.59-1.29,2.88-2.88,2.88s-2.88-1.29-2.88-2.88,1.29-2.88,2.88-2.88,2.88,1.29,2.88,2.88M1516.81,357.97c0,1.59-1.29,2.88-2.88,2.88s-2.88-1.29-2.88-2.88,1.29-2.88,2.88-2.88,2.88,1.29,2.88,2.88M1684.71,425.54c0-1.59,1.29-2.88,2.88-2.88s2.88,1.29,2.88,2.88-1.29,2.88-2.88,2.88-2.88-1.29-2.88-2.88M1720.03,459.85c0,1.59-1.29,2.88-2.88,2.88s-2.88-1.29-2.88-2.88,1.29-2.88,2.88-2.88,2.88,1.29,2.88,2.88M1808.18,258.74c0,1.59-1.29,2.88-2.88,2.88s-2.88-1.29-2.88-2.88,1.29-2.88,2.88-2.88,2.88,1.29,2.88,2.88M1482.02,80.86c0-1.59,1.29-2.88,2.88-2.88s2.88,1.29,2.88,2.88-1.29,2.88-2.88,2.88-2.88-1.29-2.88-2.88M1529.53,63.44c0-1.59,1.29-2.88,2.88-2.88s2.88,1.29,2.88,2.88-1.29,2.88-2.88,2.88-2.88-1.29-2.88-2.88M1577.56,58.69c0-1.59,1.29-2.88,2.88-2.88.45,0,.88.11,1.26.29.19-3.81,3.33-6.84,7.19-6.84s7.2,3.22,7.2,7.2-3.23,7.2-7.2,7.2c-2.55,0-4.8-1.33-6.07-3.34-.52.75-1.39,1.25-2.37,1.25-1.59,0-2.88-1.29-2.88-2.88M1627.66,66.61c0,1.59-1.29,2.88-2.88,2.88s-2.88-1.29-2.88-2.88,1.29-2.88,2.88-2.88,2.88,1.29,2.88,2.88M1732.46,347.71c1.59,0,2.88,1.29,2.88,2.88s-1.29,2.88-2.88,2.88-2.88-1.29-2.88-2.88,1.29-2.88,2.88-2.88M1769.41,343.96c-1.59,0-2.88-1.29-2.88-2.88s1.29-2.88,2.88-2.88,2.88,1.29,2.88,2.88-1.29,2.88-2.88,2.88M1485.14,440.32c0,1.59-1.29,2.88-2.88,2.88s-2.88-1.29-2.88-2.88,1.29-2.88,2.88-2.88,2.88,1.29,2.88,2.88M1555.34,347.94c0,1.59-1.29,2.88-2.88,2.88s-2.88-1.29-2.88-2.88c0-.15.02-.3.04-.44-.11,0-.21.01-.32.01-2.39,0-4.32-1.93-4.32-4.32s1.94-4.32,4.32-4.32,4.32,1.93,4.32,4.32c0,.7-.17,1.37-.47,1.96,1.26.31,2.2,1.44,2.2,2.79M1650.88,412.34c0,1.59-1.29,2.88-2.88,2.88s-2.88-1.29-2.88-2.88,1.29-2.88,2.88-2.88,2.88,1.29,2.88,2.88M1857.56,196.17c-1.59,0-2.88-1.29-2.88-2.88s1.29-2.88,2.88-2.88,2.88,1.29,2.88,2.88-1.29,2.88-2.88,2.88M1862.02,353.22c0,1.59-1.29,2.88-2.88,2.88s-2.88-1.29-2.88-2.88,1.29-2.88,2.88-2.88,2.88,1.29,2.88,2.88M1624.78,263.25c1.59,0,2.88,1.29,2.88,2.88s-1.29,2.88-2.88,2.88-2.88-1.29-2.88-2.88,1.29-2.88,2.88-2.88M1704.77,147.36c0-1.59,1.29-2.88,2.88-2.88.89,0,1.69.41,2.22,1.04.55-1.74,2.19-3.01,4.12-3.01,2.39,0,4.32,1.94,4.32,4.32s-1.94,4.32-4.32,4.32c-1.67,0-3.13-.96-3.84-2.35-.5.86-1.43,1.44-2.49,1.44-1.59,0-2.88-1.29-2.88-2.88M1688.93,62.38c0-1.59,1.29-2.88,2.88-2.88s2.88,1.29,2.88,2.88-1.29,2.88-2.88,2.88-2.88-1.29-2.88-2.88M1819.79,427.12c0,1.59-1.29,2.88-2.88,2.88s-2.88-1.29-2.88-2.88,1.29-2.88,2.88-2.88,2.88,1.29,2.88,2.88M1535.57,220.97c-1.59,0-2.88-1.29-2.88-2.88s1.29-2.88,2.88-2.88,2.88,1.29,2.88,2.88-1.29,2.88-2.88,2.88M1789.99,168.19c-1.59,0-2.88-1.29-2.88-2.88s1.29-2.88,2.88-2.88,2.88,1.29,2.88,2.88-1.29,2.88-2.88,2.88M1588.88,419.44c-1.33,0-2.44-.9-2.77-2.12-.92.43-1.95.67-3.03.67-3.97,0-7.2-3.22-7.2-7.2s3.22-7.2,7.2-7.2c1.49,0,2.86.45,4.01,1.22-.42-.91-.65-1.92-.65-2.99,0-3.97,3.22-7.2,7.2-7.2s7.2,3.22,7.2,7.2-3.23,7.2-7.2,7.2c-1.48,0-2.86-.45-4.01-1.22.42.91.65,1.92.65,2.99s-.23,2.08-.65,2.99c1.23.33,2.13,1.45,2.13,2.78,0,1.59-1.29,2.88-2.88,2.88M1596.8,355.09c1.59,0,2.88,1.29,2.88,2.88s-1.29,2.88-2.88,2.88-2.88-1.29-2.88-2.88,1.29-2.88,2.88-2.88M1875.74,271.41c0,1.59-1.29,2.88-2.88,2.88s-2.88-1.29-2.88-2.88,1.29-2.88,2.88-2.88,2.88,1.29,2.88,2.88M1597.33,246.31c-1.59,0-2.88-1.29-2.88-2.88s1.29-2.88,2.88-2.88,2.88,1.29,2.88,2.88-1.29,2.88-2.88,2.88M1504.96,190.89c-1.59,0-2.88-1.29-2.88-2.88s1.29-2.88,2.88-2.88,2.88,1.29,2.88,2.88-1.29,2.88-2.88,2.88M1691.29,115.94c-.3,0-.59-.05-.87-.14.1.48.15.97.15,1.48,0,3.97-3.22,7.2-7.2,7.2s-7.2-3.23-7.2-7.2,3.22-7.2,7.2-7.2c2.02,0,3.85.83,5.15,2.17.35-1.2,1.45-2.07,2.76-2.07,1.59,0,2.88,1.29,2.88,2.88s-1.29,2.88-2.88,2.88M1817.44,124.96c1.59,0,2.88,1.29,2.88,2.88s-1.29,2.88-2.88,2.88-2.88-1.29-2.88-2.88,1.29-2.88,2.88-2.88M1523.96,280.14c1.59,0,2.88,1.29,2.88,2.88s-1.29,2.88-2.88,2.88-2.88-1.29-2.88-2.88,1.29-2.88,2.88-2.88M1454.81,180.91c1.59,0,2.88,1.29,2.88,2.88s-1.29,2.88-2.88,2.88-2.88-1.29-2.88-2.88,1.29-2.88,2.88-2.88M1759.66,41.27c0-1.59,1.29-2.88,2.88-2.88s2.88,1.29,2.88,2.88-1.29,2.88-2.88,2.88-2.88-1.29-2.88-2.88M1830.4,90.36c0-1.59,1.29-2.88,2.88-2.88s2.88,1.29,2.88,2.88-1.29,2.88-2.88,2.88-2.88-1.29-2.88-2.88M1409.7,190.12c0-1.59,1.29-2.88,2.88-2.88s2.88,1.29,2.88,2.88-1.29,2.88-2.88,2.88-2.88-1.29-2.88-2.88M1750.93,169.77c-1.59,0-2.88-1.29-2.88-2.88s1.29-2.88,2.88-2.88,2.88,1.29,2.88,2.88-1.29,2.88-2.88,2.88M1647.23,40.21c0-1.59,1.29-2.88,2.88-2.88s2.88,1.29,2.88,2.88-1.29,2.88-2.88,2.88-2.88-1.29-2.88-2.88M1818.26,389.64c0-1.59,1.29-2.88,2.88-2.88s2.88,1.29,2.88,2.88-1.29,2.88-2.88,2.88-2.88-1.29-2.88-2.88M1692.63,345.31c0-1.59,1.29-2.88,2.88-2.88s2.88,1.29,2.88,2.88-1.29,2.88-2.88,2.88-2.88-1.29-2.88-2.88M1577.03,276.69c0-1.59,1.29-2.88,2.88-2.88s2.88,1.29,2.88,2.88-1.29,2.88-2.88,2.88-2.88-1.29-2.88-2.88M1853.05,242.38c0,1.59-1.29,2.88-2.88,2.88s-2.88-1.29-2.88-2.88,1.29-2.88,2.88-2.88,2.88,1.29,2.88,2.88M1781.02,126.49c-1.59,0-2.88-1.29-2.88-2.88s1.29-2.88,2.88-2.88,2.88,1.29,2.88,2.88-1.29,2.88-2.88,2.88M1565.13,128.65c1.59,0,2.88,1.29,2.88,2.88,0,.74-.28,1.41-.74,1.92.53,1,.83,2.15.83,3.36,0,3.98-3.22,7.2-7.2,7.2s-7.2-3.22-7.2-7.2,3.22-7.2,7.2-7.2c.65,0,1.28.09,1.88.25.52-.73,1.37-1.21,2.34-1.21M1806.6,318.91c0,1.59-1.29,2.88-2.88,2.88s-2.88-1.29-2.88-2.88,1.29-2.88,2.88-2.88,2.88,1.29,2.88,2.88M1429.05,270.35c0,2.39-1.93,4.32-4.32,4.32s-4.32-1.93-4.32-4.32,1.93-4.32,4.32-4.32,4.32,1.93,4.32,4.32M1638.07,426.59c0,2.39-1.94,4.32-4.32,4.32s-4.32-1.94-4.32-4.32,1.94-4.32,4.32-4.32,4.32,1.94,4.32,4.32M1702.27,285.66c0-2.39,1.93-4.32,4.32-4.32s4.32,1.94,4.32,4.32-1.94,4.32-4.32,4.32-4.32-1.94-4.32-4.32M1758.85,276.26c-2.39,0-4.32-1.94-4.32-4.32s1.94-4.32,4.32-4.32,4.32,1.94,4.32,4.32-1.94,4.32-4.32,4.32M1568.83,152.55c1.36,0,2.57.63,3.36,1.6.04-3.94,3.25-7.12,7.2-7.12s7.2,3.22,7.2,7.2-3.22,7.2-7.2,7.2c-2.72,0-5.09-1.51-6.32-3.74-.38,1.99-2.14,3.5-4.24,3.5-2.39,0-4.32-1.94-4.32-4.32s1.94-4.32,4.32-4.32M1748.2,231.82c0-2.39,1.94-4.32,4.32-4.32s4.32,1.93,4.32,4.32-1.93,4.32-4.32,4.32-4.32-1.93-4.32-4.32M1701.32,341.18c-2.39,0-4.32-1.94-4.32-4.32s1.93-4.32,4.32-4.32,4.32,1.93,4.32,4.32-1.93,4.32-4.32,4.32M1679.67,183.54c1.22-2.25,3.6-3.78,6.34-3.78,3.97,0,7.2,3.22,7.2,7.2s-3.22,7.2-7.2,7.2c-2.51,0-4.71-1.28-6-3.22,0,.06,0,.11,0,.17,0,3.97-3.22,7.2-7.2,7.2s-7.2-3.22-7.2-7.2,3.22-7.2,7.2-7.2c2.07,0,3.94.88,5.25,2.28.2-1.07.78-2,1.6-2.64M1698.25,53.94c0,2.39-1.93,4.32-4.32,4.32s-4.32-1.94-4.32-4.32,1.93-4.32,4.32-4.32,4.32,1.94,4.32,4.32M1523,187.48c0,2.39-1.93,4.32-4.32,4.32s-4.32-1.93-4.32-4.32,1.93-4.32,4.32-4.32,4.32,1.93,4.32,4.32M1846.04,286.72c0,2.39-1.94,4.32-4.32,4.32s-4.32-1.94-4.32-4.32,1.93-4.32,4.32-4.32,4.32,1.93,4.32,4.32M1542.96,364.21c2.39,0,4.32,1.94,4.32,4.32s-1.93,4.32-4.32,4.32-4.32-1.94-4.32-4.32,1.94-4.32,4.32-4.32M1823.77,331.15c-2.39,0-4.32-1.93-4.32-4.32s1.94-4.32,4.32-4.32,4.32,1.94,4.32,4.32-1.94,4.32-4.32,4.32M1725.17,244.49c0,2.39-1.94,4.32-4.32,4.32s-4.32-1.94-4.32-4.32,1.93-4.32,4.32-4.32,4.32,1.94,4.32,4.32M1476.98,226.64c-2.39,0-4.32-1.93-4.32-4.32s1.93-4.32,4.32-4.32,4.32,1.94,4.32,4.32-1.93,4.32-4.32,4.32M1748.2,58.16c0-2.39,1.94-4.32,4.32-4.32s4.32,1.94,4.32,4.32-1.93,4.32-4.32,4.32-4.32-1.94-4.32-4.32M1558.17,317.33s0-.04,0-.06c-1.24,2.15-3.57,3.61-6.24,3.61-3.98,0-7.2-3.22-7.2-7.2s3.22-7.2,7.2-7.2c1.75,0,3.36.63,4.61,1.67,1.41.19,2.49,1.39,2.49,2.85,0,.3-.04.59-.13.87.15.58.23,1.19.23,1.81,0,.35-.02.69-.07,1.03.79-1.03,2.03-1.7,3.43-1.7,2.39,0,4.32,1.94,4.32,4.32s-1.94,4.32-4.32,4.32-4.32-1.93-4.32-4.32M1716.53,306.77s0-.09,0-.14c-1.01,2.76-3.66,4.74-6.77,4.74-.05,0-.1,0-.14,0,3.29.67,5.76,3.57,5.76,7.06,0,3.97-3.22,7.2-7.2,7.2s-7.2-3.22-7.2-7.2,3.23-7.2,7.2-7.2c.05,0,.1,0,.14,0-3.29-.67-5.76-3.57-5.76-7.05,0-3.98,3.22-7.2,7.2-7.2s7.2,3.22,7.2,7.2c0,.27-.02.54-.05.81.25-.55.61-1.03,1.04-1.42.55-3.43,3.52-6.06,7.11-6.06,3.98,0,7.2,3.22,7.2,7.2s-3.22,7.2-7.2,7.2c-1.25,0-2.43-.32-3.45-.88-.25.05-.51.07-.77.07-2.39,0-4.32-1.94-4.32-4.32M1510.77,60.7c2.39,0,4.32,1.93,4.32,4.32s-1.94,4.32-4.32,4.32-4.32-1.93-4.32-4.32,1.93-4.32,4.32-4.32M1636.82,4.32c0-2.39,1.93-4.32,4.32-4.32s4.32,1.93,4.32,4.32-1.93,4.32-4.32,4.32-4.32-1.93-4.32-4.32M1745.56,360.09c0-2.39,1.94-4.32,4.32-4.32s4.32,1.94,4.32,4.32-1.94,4.32-4.32,4.32-4.32-1.94-4.32-4.32M1645.46,393.87c0,2.39-1.94,4.32-4.32,4.32s-4.32-1.94-4.32-4.32,1.94-4.32,4.32-4.32,4.32,1.94,4.32,4.32M1553.42,72.94c0-2.39,1.93-4.32,4.32-4.32s4.32,1.94,4.32,4.32-1.94,4.32-4.32,4.32-4.32-1.94-4.32-4.32M1489.55,90.36c0-2.39,1.93-4.32,4.32-4.32s4.32,1.94,4.32,4.32-1.94,4.32-4.32,4.32-4.32-1.94-4.32-4.32M1890.91,229.71c0,2.39-1.93,4.32-4.32,4.32s-4.32-1.93-4.32-4.32,1.93-4.32,4.32-4.32,4.32,1.94,4.32,4.32M1509.71,238.25c-.91,0-1.75-.28-2.44-.76.36.48.57,1.07.57,1.72,0,1.59-1.29,2.88-2.88,2.88s-2.88-1.29-2.88-2.88,1.29-2.88,2.88-2.88c.54,0,1.04.15,1.47.4-.65-.76-1.03-1.73-1.03-2.8,0-2.39,1.93-4.32,4.32-4.32s4.32,1.94,4.32,4.32-1.93,4.32-4.32,4.32M1777.75,67.66c0-2.39,1.94-4.32,4.32-4.32s4.32,1.94,4.32,4.32-1.94,4.32-4.32,4.32-4.32-1.94-4.32-4.32M1492.82,403.99c-2.39,0-4.32-1.93-4.32-4.32s1.94-4.32,4.32-4.32,4.32,1.93,4.32,4.32-1.94,4.32-4.32,4.32M1667,230.67c2.39,0,4.32,1.94,4.32,4.32,0,1.03-.36,1.98-.96,2.72.11,0,.23,0,.34,0,3.98,0,7.2,3.22,7.2,7.2s-3.22,7.2-7.2,7.2-7.2-3.22-7.2-7.2c0-2.3,1.08-4.34,2.75-5.66-2.03-.35-3.56-2.12-3.56-4.25,0-2.39,1.93-4.32,4.32-4.32M1743.02,259.89c-2.39,0-4.32-1.93-4.32-4.32s1.94-4.32,4.32-4.32,4.32,1.93,4.32,4.32-1.93,4.32-4.32,4.32M1487.97,375.92c0-2.39,1.94-4.32,4.32-4.32s4.32,1.93,4.32,4.32-1.94,4.32-4.32,4.32-4.32-1.93-4.32-4.32M1607.26,293.58c0-2.39,1.93-4.32,4.32-4.32s4.32,1.93,4.32,4.32-1.93,4.32-4.32,4.32-4.32-1.93-4.32-4.32M1488.69,316.27c0,2.39-1.94,4.32-4.32,4.32s-4.32-1.93-4.32-4.32,1.93-4.32,4.32-4.32,4.32,1.93,4.32,4.32M1792.1,235.61c-2.39,0-4.32-1.94-4.32-4.32s1.93-4.32,4.32-4.32,4.32,1.93,4.32,4.32-1.94,4.32-4.32,4.32M1446.8,276.16c0-2.39,1.94-4.32,4.32-4.32s4.32,1.94,4.32,4.32-1.94,4.32-4.32,4.32-4.32-1.94-4.32-4.32M1781.12,412.87c0,2.39-1.94,4.32-4.32,4.32s-4.32-1.94-4.32-4.32,1.94-4.32,4.32-4.32,4.32,1.93,4.32,4.32M1709.23,194.77c2.39,0,4.32,1.93,4.32,4.32s-1.93,4.32-4.32,4.32-4.32-1.93-4.32-4.32,1.93-4.32,4.32-4.32M1693.3,359.56c0-2.39,1.94-4.32,4.32-4.32s4.32,1.94,4.32,4.32-1.94,4.32-4.32,4.32-4.32-1.93-4.32-4.32M1822.19,190.02c2.39,0,4.32,1.93,4.32,4.32s-1.93,4.32-4.32,4.32-4.32-1.94-4.32-4.32,1.93-4.32,4.32-4.32M1723.58,374.34c0,2.39-1.93,4.32-4.32,4.32s-4.32-1.93-4.32-4.32,1.93-4.32,4.32-4.32,4.32,1.94,4.32,4.32M1500.83,423.43c0,2.39-1.93,4.32-4.32,4.32s-4.32-1.93-4.32-4.32,1.93-4.32,4.32-4.32,4.32,1.93,4.32,4.32M1524.1,138.38s-.02.05-.03.08c-.06-.1-.11-.2-.17-.29.06.08.13.15.2.21M1520.27,144.82c1.51,0,2.84-.78,3.62-1.96.84,3.05,3.63,5.29,6.94,5.29,3.98,0,7.2-3.22,7.2-7.2s-3.22-7.2-7.2-7.2c-.95,0-1.86.18-2.69.52-.52-.54-1.25-.87-2.06-.87-1.59,0-2.88,1.29-2.88,2.88,0,.55.15,1.05.42,1.49-.79-.97-2-1.59-3.34-1.59-2.39,0-4.32,1.93-4.32,4.32s1.93,4.32,4.32,4.32M1774.16,367.04c-2.39,0-4.32-1.93-4.32-4.32s1.93-4.32,4.32-4.32,4.32,1.93,4.32,4.32-1.93,4.32-4.32,4.32M1563.98,270.88c0-2.39,1.94-4.32,4.32-4.32s4.32,1.93,4.32,4.32-1.93,4.32-4.32,4.32-4.32-1.94-4.32-4.32M1592.68,288.3c0,2.39-1.93,4.32-4.32,4.32s-4.32-1.93-4.32-4.32,1.93-4.32,4.32-4.32,4.32,1.93,4.32,4.32M1650.55,327.89c0-2.39,1.93-4.32,4.32-4.32s4.32,1.94,4.32,4.32-1.93,4.32-4.32,4.32-4.32-1.94-4.32-4.32M1528.18,112.43c2.39,0,4.32,1.93,4.32,4.32s-1.93,4.32-4.32,4.32-4.32-1.93-4.32-4.32,1.93-4.32,4.32-4.32M1764.66,99.76c2.39,0,4.32,1.94,4.32,4.32s-1.93,4.32-4.32,4.32-4.32-1.93-4.32-4.32,1.94-4.32,4.32-4.32M1522.28,339.5c0-2.39,1.93-4.32,4.32-4.32s4.32,1.93,4.32,4.32-1.93,4.32-4.32,4.32-4.32-1.93-4.32-4.32M1787.88,86.57c2.39,0,4.32,1.94,4.32,4.32s-1.93,4.32-4.32,4.32-4.32-1.94-4.32-4.32,1.94-4.32,4.32-4.32M1778.28,161.09c0-2.39,1.94-4.32,4.32-4.32s4.32,1.94,4.32,4.32-1.94,4.32-4.32,4.32-4.32-1.93-4.32-4.32M1471.8,384.89c0,2.39-1.93,4.32-4.32,4.32s-4.32-1.94-4.32-4.32,1.93-4.32,4.32-4.32,4.32,1.94,4.32,4.32M1561.01,211.76c0,2.39-1.93,4.32-4.32,4.32s-4.32-1.94-4.32-4.32,1.93-4.32,4.32-4.32,4.32,1.94,4.32,4.32M1689.08,14.88c0-2.39,1.94-4.32,4.32-4.32s4.32,1.93,4.32,4.32-1.94,4.32-4.32,4.32-4.32-1.93-4.32-4.32M1771.95,314.16c0-2.39,1.94-4.32,4.32-4.32s4.32,1.94,4.32,4.32-1.93,4.32-4.32,4.32-4.32-1.94-4.32-4.32M1450.59,147.8c2.39,0,4.32,1.93,4.32,4.32s-1.94,4.32-4.32,4.32-4.32-1.93-4.32-4.32,1.94-4.32,4.32-4.32M1618.54,246.6c0,2.39-1.94,4.32-4.32,4.32s-4.32-1.93-4.32-4.32,1.94-4.32,4.32-4.32,4.32,1.93,4.32,4.32M1513.84,308.89c0-.95.31-1.83.83-2.55.25-3.75,3.37-6.72,7.18-6.72s7.2,3.22,7.2,7.2-3.22,7.2-7.2,7.2c-1.21,0-2.34-.3-3.34-.82-.12,0-.24.02-.35.02-2.39,0-4.32-1.94-4.32-4.32M1754.2,314.16c0,2.39-1.94,4.32-4.32,4.32s-4.32-1.94-4.32-4.32,1.94-4.32,4.32-4.32,4.32,1.94,4.32,4.32M1619.4,51.3c0-2.39,1.94-4.32,4.32-4.32,1.17,0,2.23.47,3.01,1.22,1.29-1.91,3.48-3.16,5.96-3.16,3.98,0,7.2,3.22,7.2,7.2s-3.22,7.2-7.2,7.2c-3.01,0-5.6-1.86-6.67-4.48-.67.42-1.46.67-2.31.67-2.39,0-4.32-1.93-4.32-4.32M1417.43,291.47c0,2.39-1.93,4.32-4.32,4.32s-4.32-1.94-4.32-4.32,1.93-4.32,4.32-4.32,4.32,1.93,4.32,4.32M1500.21,267.81c-2.39,0-4.32-1.94-4.32-4.32s1.93-4.32,4.32-4.32,4.32,1.93,4.32,4.32-1.93,4.32-4.32,4.32M1823.77,231.19c2.39,0,4.32,1.94,4.32,4.32s-1.94,4.32-4.32,4.32-4.32-1.94-4.32-4.32,1.94-4.32,4.32-4.32M1597.86,409.61c2.39,0,4.32,1.93,4.32,4.32s-1.93,4.32-4.32,4.32-4.32-1.93-4.32-4.32,1.93-4.32,4.32-4.32M1678.19,398.62c0,2.39-1.94,4.32-4.32,4.32s-4.32-1.94-4.32-4.32,1.93-4.32,4.32-4.32,4.32,1.94,4.32,4.32M1794.74,289.45c-2.39,0-4.32-1.94-4.32-4.32s1.94-4.32,4.32-4.32,4.32,1.93,4.32,4.32-1.94,4.32-4.32,4.32M1451.74,341.61c0,2.39-1.94,4.32-4.32,4.32s-4.32-1.94-4.32-4.32,1.94-4.32,4.32-4.32,4.32,1.94,4.32,4.32M1503.28,41.27c0-2.39,1.94-4.32,4.32-4.32s4.32,1.93,4.32,4.32-1.94,4.32-4.32,4.32-4.32-1.93-4.32-4.32M1718.64,53.94c0-2.39,1.93-4.32,4.32-4.32.21,0,.42.02.63.05-.54-.52-.87-1.25-.87-2.06,0-1.59,1.29-2.88,2.88-2.88s2.88,1.29,2.88,2.88-1.29,2.88-2.88,2.88c-.02,0-.03,0-.05,0,1.05.79,1.73,2.04,1.73,3.46,0,2.39-1.93,4.32-4.32,4.32s-4.32-1.94-4.32-4.32M1599.54,458.26c0,2.39-1.94,4.32-4.32,4.32s-4.32-1.94-4.32-4.32,1.94-4.32,4.32-4.32,4.32,1.94,4.32,4.32M1701.22,74.52c0-2.39,1.94-4.32,4.32-4.32s4.32,1.93,4.32,4.32-1.93,4.32-4.32,4.32-4.32-1.93-4.32-4.32M1584.04,363.78c0-2.39,1.93-4.32,4.32-4.32s4.32,1.93,4.32,4.32-1.93,4.32-4.32,4.32-4.32-1.93-4.32-4.32M1641.14,71.45c-2.39,0-4.32-1.94-4.32-4.32s1.93-4.32,4.32-4.32,4.32,1.94,4.32,4.32-1.93,4.32-4.32,4.32M1836.97,153.8c-2.39,0-4.32-1.93-4.32-4.32s1.93-4.32,4.32-4.32,4.32,1.93,4.32,4.32-1.93,4.32-4.32,4.32M1552.37,243.96c0-2.39,1.93-4.32,4.32-4.32s4.32,1.94,4.32,4.32-1.93,4.32-4.32,4.32-4.32-1.94-4.32-4.32M1598.82,267.19c0-2.39,1.93-4.32,4.32-4.32s4.32,1.94,4.32,4.32-1.93,4.32-4.32,4.32-4.32-1.94-4.32-4.32M1626.79,26.49c0-2.39,1.93-4.32,4.32-4.32s4.32,1.93,4.32,4.32-1.93,4.32-4.32,4.32-4.32-1.93-4.32-4.32M1539.7,264.02c0-2.39,1.93-4.32,4.32-4.32s4.32,1.94,4.32,4.32-1.94,4.32-4.32,4.32-4.32-1.94-4.32-4.32M1494.31,296.22c0-2.39,1.93-4.32,4.32-4.32s4.32,1.94,4.32,4.32-1.94,4.32-4.32,4.32-4.32-1.93-4.32-4.32M1521.42,164.26c0,2.39-1.94,4.32-4.32,4.32-1.17,0-2.24-.47-3.01-1.23-.74,3.19-3.6,5.58-7.01,5.58-3.98,0-7.2-3.22-7.2-7.2s3.22-7.2,7.2-7.2c2.68,0,5.01,1.47,6.25,3.64.74-1.33,2.15-2.22,3.78-2.22,2.39,0,4.32,1.94,4.32,4.32M1500.11,114.64c0-2.39,1.93-4.32,4.32-4.32s4.32,1.94,4.32,4.32-1.94,4.32-4.32,4.32-4.32-1.93-4.32-4.32M1539.37,455.62c0,2.39-1.94,4.32-4.32,4.32s-4.32-1.93-4.32-4.32,1.94-4.32,4.32-4.32,4.32,1.94,4.32,4.32M1584.66,249.67c2.39,0,4.32,1.93,4.32,4.32s-1.93,4.32-4.32,4.32-4.32-1.94-4.32-4.32,1.93-4.32,4.32-4.32M1877.71,199.62c0,2.39-1.93,4.32-4.32,4.32s-4.32-1.93-4.32-4.32,1.93-4.32,4.32-4.32,4.32,1.93,4.32,4.32M1802.23,361.14c0,2.39-1.93,4.32-4.32,4.32s-4.32-1.94-4.32-4.32,1.93-4.32,4.32-4.32,4.32,1.94,4.32,4.32M1553.42,22.27c0-2.39,1.93-4.32,4.32-4.32s4.32,1.93,4.32,4.32-1.94,4.32-4.32,4.32-4.32-1.94-4.32-4.32M1766.87,461.43c0,2.39-1.94,4.32-4.32,4.32s-4.32-1.93-4.32-4.32,1.94-4.32,4.32-4.32,4.32,1.94,4.32,4.32M1677.56,268.87c-2.39,0-4.32-1.93-4.32-4.32s1.94-4.32,4.32-4.32,4.32,1.93,4.32,4.32-1.93,4.32-4.32,4.32M1624.88,406.01c0,2.39-1.93,4.32-4.32,4.32s-4.32-1.94-4.32-4.32,1.93-4.32,4.32-4.32,4.32,1.94,4.32,4.32M1443.83,251.35c0,2.39-1.93,4.32-4.32,4.32s-4.32-1.93-4.32-4.32,1.93-4.32,4.32-4.32,4.32,1.93,4.32,4.32M1674.83,34.93c0-2.39,1.94-4.32,4.32-4.32s4.32,1.94,4.32,4.32-1.94,4.32-4.32,4.32-4.32-1.94-4.32-4.32M1774.25,291.99c0,2.39-1.93,4.32-4.32,4.32s-4.32-1.94-4.32-4.32,1.93-4.32,4.32-4.32,4.32,1.93,4.32,4.32M1767.2,183.26c0-2.39,1.94-4.32,4.32-4.32s4.32,1.93,4.32,4.32-1.94,4.32-4.32,4.32-4.32-1.94-4.32-4.32M1768.78,44.44c0-2.39,1.94-4.32,4.32-4.32s4.32,1.94,4.32,4.32-1.94,4.32-4.32,4.32-4.32-1.94-4.32-4.32M1566.19,364.74c2.39,0,4.32,1.94,4.32,4.32s-1.93,4.32-4.32,4.32-4.32-1.93-4.32-4.32,1.94-4.32,4.32-4.32M1689.7,473.67c-2.39,0-4.32-1.93-4.32-4.32s1.93-4.32,4.32-4.32,4.32,1.94,4.32,4.32-1.93,4.32-4.32,4.32M1450.06,213.44c-2.39,0-4.32-1.93-4.32-4.32s1.94-4.32,4.32-4.32,4.32,1.93,4.32,4.32-1.93,4.32-4.32,4.32M1749.88,170.49c2.39,0,4.32,1.94,4.32,4.32s-1.94,4.32-4.32,4.32-4.32-1.94-4.32-4.32,1.94-4.32,4.32-4.32M1588.46,114.11c0,2.39-1.94,4.32-4.32,4.32s-4.32-1.94-4.32-4.32,1.93-4.32,4.32-4.32,4.32,1.94,4.32,4.32M1441.52,101.44c0-2.39,1.94-4.32,4.32-4.32s4.32,1.94,4.32,4.32-1.93,4.32-4.32,4.32-4.32-1.94-4.32-4.32M1722.86,274.58c0-2.39,1.93-4.32,4.32-4.32s4.32,1.93,4.32,4.32-1.93,4.32-4.32,4.32-4.32-1.93-4.32-4.32M1730.87,227.17c-.15,0-.3,0-.45-.02.17.61.26,1.25.26,1.92,0,3.98-3.22,7.2-7.2,7.2-.75,0-1.47-.12-2.15-.33-.52.54-1.26.88-2.07.88-1.59,0-2.88-1.29-2.88-2.88,0-.67.23-1.27.61-1.76-.45-.94-.7-2-.7-3.11,0-3.98,3.22-7.2,7.2-7.2,1.1,0,2.15.25,3.08.69.15-2.25,2.02-4.03,4.31-4.03s4.32,1.93,4.32,4.32-1.94,4.32-4.32,4.32M1574.54,203.32c0-2.39,1.93-4.32,4.32-4.32s4.32,1.94,4.32,4.32-1.93,4.32-4.32,4.32-4.32-1.94-4.32-4.32M1525.54,204.8c2.39,0,4.32,1.93,4.32,4.32s-1.94,4.32-4.32,4.32-4.32-1.93-4.32-4.32,1.94-4.32,4.32-4.32M1489.55,190.12c0-2.39,1.93-4.32,4.32-4.32s4.32,1.93,4.32,4.32-1.94,4.32-4.32,4.32-4.32-1.93-4.32-4.32M1496.51,135.66c2.39,0,4.32,1.93,4.32,4.32s-1.93,4.32-4.32,4.32-4.32-1.93-4.32-4.32,1.93-4.32,4.32-4.32M1435.28,136.91c-2.39,0-4.32-1.94-4.32-4.32s1.93-4.32,4.32-4.32,4.32,1.94,4.32,4.32-1.93,4.32-4.32,4.32M1595.65,65.02c0-2.39,1.93-4.32,4.32-4.32s4.32,1.93,4.32,4.32-1.93,4.32-4.32,4.32-4.32-1.93-4.32-4.32M1811.11,85.71c-2.39,0-4.32-1.94-4.32-4.32s1.93-4.32,4.32-4.32,4.32,1.94,4.32,4.32-1.94,4.32-4.32,4.32M1789.99,110.32c2.39,0,4.32,1.94,4.32,4.32s-1.93,4.32-4.32,4.32-4.32-1.93-4.32-4.32,1.94-4.32,4.32-4.32M1788.41,142.71c-2.39,0-4.32-1.93-4.32-4.32s1.93-4.32,4.32-4.32,4.32,1.93,4.32,4.32-1.93,4.32-4.32,4.32M1866.1,148.42c0,2.39-1.93,4.32-4.32,4.32s-4.32-1.94-4.32-4.32,1.93-4.32,4.32-4.32,4.32,1.93,4.32,4.32M1828.62,404.95c0,2.39-1.94,4.32-4.32,4.32s-4.32-1.93-4.32-4.32,1.94-4.32,4.32-4.32,4.32,1.93,4.32,4.32M1576.84,417.09c0,2.39-1.94,4.32-4.32,4.32s-4.32-1.94-4.32-4.32,1.94-4.32,4.32-4.32,4.32,1.94,4.32,4.32M1398.43,229.71c0,2.39-1.93,4.32-4.32,4.32s-4.32-1.93-4.32-4.32,1.93-4.32,4.32-4.32,4.32,1.94,4.32,4.32M1726.65,333.79c-2.39,0-4.32-1.93-4.32-4.32s1.94-4.32,4.32-4.32,4.32,1.93,4.32,4.32-1.94,4.32-4.32,4.32M1550.45,416.04c0,2.39-1.93,4.32-4.32,4.32s-4.32-1.94-4.32-4.32,1.93-4.32,4.32-4.32,4.32,1.94,4.32,4.32M1524.49,255.67c-2.39,0-4.32-1.93-4.32-4.32s1.93-4.32,4.32-4.32,4.32,1.93,4.32,4.32-1.93,4.32-4.32,4.32M1490.8,244.49c0,2.39-1.93,4.32-4.32,4.32s-4.32-1.94-4.32-4.32,1.93-4.32,4.32-4.32,4.32,1.94,4.32,4.32M1608.94,358.07c-2.39,0-4.32-1.93-4.32-4.32s1.94-4.32,4.32-4.32,4.32,1.93,4.32,4.32-1.94,4.32-4.32,4.32M1634.9,491.52c0,2.39-1.93,4.32-4.32,4.32s-4.32-1.94-4.32-4.32,1.93-4.32,4.32-4.32,4.32,1.94,4.32,4.32M1665.52,482.54c0,2.39-1.93,4.32-4.32,4.32s-4.32-1.93-4.32-4.32,1.93-4.32,4.32-4.32,4.32,1.93,4.32,4.32M1886.16,315.75c0,2.39-1.93,4.32-4.32,4.32s-4.32-1.93-4.32-4.32,1.93-4.32,4.32-4.32,4.32,1.93,4.32,4.32M1679.66,333.38c-.64-.68-1.49-1.15-2.44-1.31.1-.49.16-.99.16-1.51,0-.37-.03-.73-.08-1.08,1.08,1.45,2.49,2.63,4.12,3.44-.61.08-1.2.23-1.76.45M1698.06,322.61c0-1.08-.15-2.12-.43-3.11.96-.7,1.75-1.63,2.27-2.72,1.23-.76,2.05-2.12,2.05-3.67,0-1.96-1.31-3.62-3.1-4.15-1.32-1.52-3.27-2.49-5.44-2.49-3.07,0-5.68,1.92-6.72,4.62-.05,0-.09,0-.14,0-6.36,0-11.52,5.16-11.52,11.52,0,1.05.14,2.07.41,3.03-1.31-1.4-3.18-2.28-5.25-2.28-3.98,0-7.2,3.22-7.2,7.2s3.22,7.2,7.2,7.2c.75,0,1.48-.12,2.16-.33.37,1.4,1.43,2.53,2.79,2.99.19,3.81,3.33,6.84,7.19,6.84s7.2-3.22,7.2-7.2c0-2.47-1.24-4.64-3.13-5.94.05,0,.1,0,.16,0,6.36,0,11.52-5.16,11.52-11.52M1642.72,301.4c-1.77,0-3.45-.4-4.95-1.12.68,1.1,1.07,2.39,1.07,3.77,0,3.97-3.23,7.2-7.2,7.2-3.56,0-6.52-2.58-7.1-5.98-.33-.47-.54-1.05-.54-1.67,0-.82.34-1.55.89-2.08,1.02-2.73,3.66-4.67,6.74-4.67.76,0,1.49.12,2.18.34-1.64-1.99-2.62-4.54-2.62-7.31,0-.58.04-1.15.13-1.71-1.72-.57-2.95-2.19-2.95-4.1,0-2.39,1.94-4.32,4.32-4.32,1.11,0,2.11.41,2.88,1.1,1.88-1.49,4.24-2.41,6.82-2.48,0-.03,0-.07,0-.1,0-3.97,3.22-7.2,7.2-7.2s7.2,3.22,7.2,7.2c0,2.75-1.55,5.14-3.82,6.36.81,1.58,1.27,3.36,1.27,5.26,0,.16,0,.32-.01.48.21-.03.42-.05.63-.05,2.39,0,4.32,1.93,4.32,4.32,0,1.7-.98,3.17-2.41,3.87-.13,3.86-3.3,6.94-7.19,6.94-2.85,0-5.31-1.66-6.48-4.06-.13,0-.25,0-.38,0M1611.58,396.41c-.89,0-1.76-.11-2.6-.3-1.32,1.44-3.21,2.35-5.32,2.35-3.98,0-7.2-3.22-7.2-7.2,0-2.66,1.45-4.99,3.6-6.23,0-.05,0-.09,0-.14,0-.35.02-.69.05-1.03-1.32,1.51-3.26,2.46-5.42,2.46-3.98,0-7.2-3.22-7.2-7.2s3.22-7.2,7.2-7.2,6.96,2.99,7.18,6.76c1.19-1.85,2.88-3.34,4.89-4.27,1.31-1.83,3.45-3.03,5.87-3.03,3.27,0,6.04,2.19,6.91,5.18,2.19,2.1,3.55,5.05,3.55,8.32,0,6.36-5.16,11.52-11.52,11.52M1775.02,124.55c0,3.98-3.22,7.2-7.2,7.2s-7.2-3.22-7.2-7.2,3.22-7.2,7.2-7.2,7.2,3.22,7.2,7.2M1503.04,215.87c0-3.98,3.22-7.2,7.2-7.2s7.2,3.22,7.2,7.2-3.23,7.2-7.2,7.2-7.2-3.22-7.2-7.2M1755.87,173.64c0-3.98,3.22-7.2,7.2-7.2s7.2,3.22,7.2,7.2-3.22,7.2-7.2,7.2-7.2-3.22-7.2-7.2M1523.96,273.74c-3.98,0-7.2-3.22-7.2-7.2s3.22-7.2,7.2-7.2,7.2,3.22,7.2,7.2-3.22,7.2-7.2,7.2M1655.06,413.28c0-3.97,3.22-7.2,7.2-7.2s7.2,3.22,7.2,7.2-3.22,7.2-7.2,7.2-7.2-3.22-7.2-7.2M1606.11,440.73c0,3.97-3.23,7.2-7.2,7.2s-7.2-3.22-7.2-7.2,3.22-7.2,7.2-7.2,7.2,3.22,7.2,7.2M1673.68,441.78c0,3.98-3.22,7.2-7.2,7.2s-7.2-3.23-7.2-7.2,3.22-7.2,7.2-7.2,7.2,3.22,7.2,7.2M1675.98,282.04c1.67,0,3.21.57,4.43,1.53.77-.72,1.81-1.17,2.96-1.17,2.39,0,4.32,1.93,4.32,4.32s-1.94,4.32-4.32,4.32c-.14,0-.28,0-.41-.02-.79,3.12-3.62,5.42-6.98,5.42-3.97,0-7.2-3.22-7.2-7.2s3.22-7.2,7.2-7.2M1481.73,279.4c3.98,0,7.2,3.23,7.2,7.2s-3.22,7.2-7.2,7.2-7.2-3.22-7.2-7.2,3.23-7.2,7.2-7.2M1566.19,356.08c-3.97,0-7.2-3.23-7.2-7.2s3.22-7.2,7.2-7.2c.51,0,1.01.05,1.49.16,0-.08,0-.15,0-.23,0-2.39,1.93-4.32,4.32-4.32s4.32,1.94,4.32,4.32c0,2.13-1.55,3.91-3.59,4.26.42.92.66,1.94.66,3.02,0,3.97-3.22,7.2-7.2,7.2M1592.05,283.77c-3.97,0-7.2-3.22-7.2-7.2s3.23-7.2,7.2-7.2,7.2,3.22,7.2,7.2-3.22,7.2-7.2,7.2M1713.46,271.1c-3.97,0-7.2-3.22-7.2-7.2,0-.3.02-.6.06-.89-.76.69-1.78,1.11-2.89,1.11-2.39,0-4.32-1.94-4.32-4.32s1.94-4.32,4.32-4.32,4.17,1.79,4.31,4.05c1.31-1.72,3.39-2.83,5.72-2.83,3.98,0,7.2,3.23,7.2,7.2s-3.22,7.2-7.2,7.2M1525.02,374.56c-3.98,0-7.2-3.22-7.2-7.2s3.22-7.2,7.2-7.2,7.2,3.22,7.2,7.2-3.22,7.2-7.2,7.2M1733.18,79.16c0-3.98,3.22-7.2,7.2-7.2s7.2,3.22,7.2,7.2-3.22,7.2-7.2,7.2-7.2-3.22-7.2-7.2M1777.13,245.43c0,3.98-3.22,7.2-7.2,7.2s-7.2-3.22-7.2-7.2c0-3.15,2.02-5.82,4.83-6.8.52-.75,1.39-1.24,2.37-1.24s1.85.49,2.37,1.24c2.81.98,4.83,3.65,4.83,6.8M1658.22,65.96c0-2.83,1.64-5.28,4.01-6.46-.05-.26-.08-.54-.08-.82,0-2.39,1.93-4.32,4.32-4.32s4.32,1.94,4.32,4.32c0,.72-.18,1.39-.49,1.99,1.42,1.31,2.31,3.19,2.31,5.28,0,3.97-3.22,7.2-7.2,7.2s-7.2-3.23-7.2-7.2M1702.56,349.41c0-3.98,3.22-7.2,7.2-7.2s7.2,3.22,7.2,7.2-3.23,7.2-7.2,7.2-7.2-3.22-7.2-7.2M1518.34,100.27c0-3.98,3.22-7.2,7.2-7.2s7.2,3.22,7.2,7.2-3.22,7.2-7.2,7.2-7.2-3.22-7.2-7.2M1532.6,233.29c0-1.55.49-2.98,1.32-4.16-.02-.16-.03-.32-.03-.48,0-2.39,1.93-4.32,4.32-4.32,1.56,0,2.93.83,3.68,2.07,2.95.9,5.1,3.64,5.1,6.89,0,3.98-3.22,7.2-7.2,7.2s-7.2-3.22-7.2-7.2M1755.49,404.31c0,3.98-3.22,7.2-7.2,7.2s-7.2-3.22-7.2-7.2,3.22-7.2,7.2-7.2,7.2,3.22,7.2,7.2M1784.19,226.76c-3.97,0-7.2-3.23-7.2-7.2s3.23-7.2,7.2-7.2,7.2,3.22,7.2,7.2-3.22,7.2-7.2,7.2M1739.51,332.52c0-3.98,3.22-7.2,7.2-7.2s7.2,3.22,7.2,7.2-3.22,7.2-7.2,7.2-7.2-3.22-7.2-7.2M1731.6,98.24s0-.06,0-.08c0-3.98,3.22-7.2,7.2-7.2s7.2,3.22,7.2,7.2-3.22,7.2-7.2,7.2c-1.92,0-3.65-.75-4.94-1.97,0,.03,0,.06,0,.09,0,3.97-3.22,7.2-7.2,7.2s-7.2-3.22-7.2-7.2,3.23-7.2,7.2-7.2c1.92,0,3.65.75,4.94,1.97M1552.13,94.5c0-3.98,3.22-7.2,7.2-7.2,2.6,0,4.87,1.37,6.14,3.43.49-.39,1.11-.62,1.78-.62,1.04,0,1.96.56,2.46,1.39,1.05-2.22,3.21-3.82,5.76-4.09-1.97-1.29-3.28-3.51-3.28-6.04,0-3.98,3.22-7.2,7.2-7.2s7.2,3.22,7.2,7.2c0,3.72-2.82,6.78-6.45,7.16,1.97,1.28,3.28,3.51,3.28,6.04,0,3.97-3.22,7.2-7.2,7.2-3.76,0-6.84-2.88-7.17-6.54-.49.4-1.12.64-1.8.64-.29,0-.57-.04-.83-.12-.17.95-.52,1.83-1.01,2.61,1.17.77,1.94,2.1,1.94,3.61,0,2.39-1.94,4.32-4.32,4.32s-4.32-1.93-4.32-4.32c0-.1,0-.2.01-.3-3.69-.31-6.59-3.4-6.59-7.17M1535.57,194.98c3.98,0,7.2,3.22,7.2,7.2s-3.22,7.2-7.2,7.2-7.2-3.23-7.2-7.2,3.22-7.2,7.2-7.2M1748.1,204.82c0,3.98-3.22,7.2-7.2,7.2s-7.2-3.22-7.2-7.2c0-.93.18-1.82.5-2.64-.39.12-.79.18-1.22.18-.45,0-.88-.07-1.29-.2-1.03.57-2.21.89-3.46.89-3.97,0-7.2-3.22-7.2-7.2s3.22-7.2,7.2-7.2c3.47,0,6.37,2.46,7.05,5.73,1.21.76,2.02,2.11,2.02,3.66,0,.2-.01.38-.04.57,1.07-.63,2.31-.99,3.64-.99,3.98,0,7.2,3.22,7.2,7.2M1609.81,221.71c0,3.45-2.43,6.34-5.67,7.04-.5,1.83-2.18,3.17-4.16,3.17-1.67,0-3.12-.95-3.84-2.34-1.04,2.7-3.65,4.61-6.72,4.61-3.97,0-7.2-3.22-7.2-7.2,0-2.28,1.06-4.31,2.72-5.63-.59.16-1.21.24-1.85.24-3.64,0-6.65-2.71-7.13-6.22-.39.2-.84.32-1.31.32-1.59,0-2.88-1.29-2.88-2.88s1.29-2.88,2.88-2.88c.86,0,1.62.38,2.15.97,1.23-2.21,3.59-3.7,6.29-3.7,3.98,0,7.2,3.22,7.2,7.2,0,2.28-1.06,4.31-2.72,5.63.59-.16,1.21-.24,1.85-.24,2.62,0,4.91,1.4,6.17,3.49-.11-.5-.17-1.03-.17-1.57,0-3.98,3.22-7.2,7.2-7.2s7.2,3.22,7.2,7.2M1570.6,237.02c0-1.54.49-2.97,1.32-4.15-.35-.63-.55-1.34-.55-2.11,0-2.39,1.94-4.32,4.32-4.32,2.18,0,3.98,1.61,4.28,3.71,2.92.92,5.03,3.65,5.03,6.87,0,3.98-3.22,7.2-7.2,7.2s-7.2-3.22-7.2-7.2M1689.37,233.85c0-3.98,3.22-7.2,7.2-7.2s7.2,3.22,7.2,7.2-3.22,7.2-7.2,7.2-7.2-3.22-7.2-7.2M1709.95,175.26c0-3.98,3.22-7.2,7.2-7.2,2.68,0,5.02,1.47,6.26,3.65.23-2.17,2.07-3.86,4.29-3.86,2.39,0,4.32,1.93,4.32,4.32,0,.86-.25,1.65-.68,2.33.19-.02.39-.02.58-.02,3.98,0,7.2,3.22,7.2,7.2s-3.22,7.2-7.2,7.2-7.2-3.23-7.2-7.2c0-2.07.87-3.93,2.27-5.24-1.07-.18-2-.74-2.66-1.56,0,.13.01.26.01.39,0,3.98-3.22,7.2-7.2,7.2s-7.2-3.22-7.2-7.2M1559.52,183.18c0-3.98,3.22-7.2,7.2-7.2.5,0,.98.05,1.45.15.53-.23,1.11-.35,1.72-.35,2.39,0,4.32,1.93,4.32,4.32,0,.65-.14,1.27-.4,1.82.07.41.11.84.11,1.27,0,3.97-3.22,7.2-7.2,7.2s-7.2-3.23-7.2-7.2M1752.22,143.8c-.02-.24-.04-.49-.04-.73,0-3.98,3.23-7.2,7.2-7.2s7.2,3.22,7.2,7.2c0,2.49-1.26,4.68-3.18,5.98.52.71.83,1.59.83,2.55,0,2.39-1.93,4.32-4.32,4.32s-4.32-1.94-4.32-4.32c0-.76.2-1.48.55-2.1-1.46-.74-2.64-1.96-3.31-3.46.02.24.04.49.04.73,0,3.98-3.22,7.2-7.2,7.2-2.61,0-4.89-1.39-6.15-3.46-.66.42-1.45.66-2.29.66-2.39,0-4.32-1.94-4.32-4.32s1.93-4.32,4.32-4.32c.82,0,1.58.23,2.23.62,1.25-2.14,3.57-3.58,6.22-3.58,2.92,0,5.43,1.74,6.56,4.24M1708.9,90.36c0-3.98,3.22-7.2,7.2-7.2s7.07,3.1,7.19,6.97c.06,0,.13-.01.2-.01,1.59,0,2.88,1.29,2.88,2.88s-1.29,2.88-2.88,2.88c-.76,0-1.45-.3-1.97-.78-1.08,1.24-2.58,2.1-4.27,2.37-.13,2.27-2.01,4.07-4.31,4.07-.74,0-1.43-.18-2.04-.51-1.19,2.33-3.61,3.92-6.41,3.92-3.98,0-7.2-3.22-7.2-7.2s3.22-7.2,7.2-7.2c1.78,0,3.42.65,4.67,1.72-.17-.61-.26-1.25-.26-1.92M1704.73,217.48c2.27.13,4.07,2.01,4.07,4.31s-1.93,4.32-4.32,4.32c-1.23,0-2.33-.51-3.12-1.33-1.09.66-2.37,1.05-3.74,1.05-3.98,0-7.2-3.22-7.2-7.2s3.22-7.2,7.2-7.2c3.59,0,6.56,2.62,7.11,6.05M1702.56,132.59c0-3.98,3.22-7.2,7.2-7.2s7.2,3.22,7.2,7.2-3.23,7.2-7.2,7.2-7.2-3.22-7.2-7.2M1686.85,89.13c-.42-.91-.65-1.92-.65-2.99,0-3.98,3.22-7.2,7.2-7.2s7.2,3.22,7.2,7.2-3.22,7.2-7.2,7.2c-1.48,0-2.86-.45-4.01-1.22.42.91.65,1.92.65,2.99,0,.39-.03.78-.1,1.16,1.75.55,3.02,2.19,3.02,4.12,0,2.39-1.94,4.32-4.32,4.32-1.79,0-3.32-1.09-3.98-2.63-.58.15-1.19.24-1.83.24-3.98,0-7.2-3.22-7.2-7.2s3.22-7.2,7.2-7.2c1.48,0,2.86.45,4.01,1.22M1603.14,154.56c-1.32,0-2.55-.36-3.62-.98-.06.63-.25,1.21-.55,1.73.84,1.18,1.34,2.62,1.34,4.19,0,3.98-3.23,7.2-7.2,7.2s-7.2-3.22-7.2-7.2c0-3.22,2.11-5.94,5.02-6.87.26-2.13,2.08-3.79,4.29-3.79.31,0,.61.03.89.09-.11-.51-.18-1.04-.18-1.58,0-2.12.92-4.03,2.38-5.35-.11-.31-.18-.64-.18-.98,0-1.59,1.29-2.88,2.88-2.88,1.3,0,2.4.86,2.76,2.04,3.67.33,6.56,3.41,6.56,7.17,0,3.98-3.22,7.2-7.2,7.2M1537.69,178.17c3.97,0,7.2,3.22,7.2,7.2,0,.7-.1,1.37-.29,2.01.45-.24.94-.41,1.47-.48-.84-1.17-1.33-2.61-1.33-4.17,0-3.98,3.22-7.2,7.2-7.2s7.2,3.22,7.2,7.2-3.22,7.2-7.2,7.2c-.4,0-.79-.04-1.17-.1.14.42.21.87.21,1.34,0,.07,0,.14,0,.2,3.43.55,6.05,3.52,6.05,7.11,0,3.98-3.22,7.2-7.2,7.2s-7.2-3.22-7.2-7.2c0-1.49.45-2.88,1.23-4.03-.93-.79-1.52-1.97-1.52-3.29,0-.11,0-.22.01-.33-1.26,1.07-2.89,1.72-4.67,1.72-3.98,0-7.2-3.22-7.2-7.2s3.22-7.2,7.2-7.2M1654.06,143.45c-.77-.5-1.64-.87-2.58-1.05.75-1.53,1.17-3.25,1.17-5.07,0-.39-.02-.78-.06-1.16,1-.03,1.97-.19,2.89-.46-1.01,1.71-1.59,3.71-1.59,5.85,0,.65.06,1.28.16,1.9M1646.61,108.31c0,2.11.91,4,2.35,5.32-2.06.61-3.88,1.78-5.28,3.33-.34-.63-.92-1.11-1.6-1.35.3-.8.47-1.66.47-2.55,0-3.98-3.22-7.2-7.2-7.2s-7.2,3.22-7.2,7.2,3.23,7.2,7.2,7.2c1.14,0,2.22-.27,3.18-.74.45,1,1.45,1.7,2.62,1.7.03,0,.06,0,.09,0-.34,1.09-.53,2.25-.53,3.46,0,.39.02.78.06,1.16-1.13.04-2.22.24-3.25.58-.86-3.02-3.63-5.24-6.93-5.24-3.98,0-7.2,3.22-7.2,7.2,0,2.79,1.59,5.21,3.92,6.41-.33.61-.51,1.3-.51,2.04,0,.24.02.46.06.69-1.15-.38-2.38-.59-3.65-.59-.06,0-.13,0-.19,0,0-.03,0-.06,0-.1,0-3.98-3.22-7.2-7.2-7.2s-7.2,3.22-7.2,7.2c0,2.92,1.74,5.43,4.24,6.56-.74,1.53-1.17,3.24-1.17,5.05,0,.21,0,.41.02.62-2.16,1.24-3.62,3.57-3.62,6.24,0,3.97,3.22,7.2,7.2,7.2,1.37,0,2.65-.38,3.74-1.05.48.18,1,.28,1.53.28.11,0,.22,0,.33-.01-1.07,1.26-1.72,2.89-1.72,4.67,0,2.2.99,4.17,2.55,5.5-1.1-.68-2.4-1.08-3.79-1.08-3.98,0-7.2,3.22-7.2,7.2,0,1.6.53,3.09,1.41,4.28-.08.32-.12.65-.12,1,0,.25.02.49.06.72-3.46.53-6.11,3.51-6.11,7.12,0,3.41,2.37,6.26,5.55,7.01-.11.31-.18.64-.18.99,0,1.59,1.29,2.88,2.88,2.88s2.88-1.29,2.88-2.88c0-.62-.2-1.19-.53-1.65,2.26-1.21,3.79-3.6,3.79-6.34,0-1.64-.55-3.15-1.47-4.36.68-.5,1.2-1.19,1.5-1.99,2.76-1.01,4.73-3.66,4.73-6.76,0-2.2-.99-4.18-2.55-5.5,1.1.69,2.4,1.08,3.8,1.08,1.05,0,2.05-.23,2.95-.63.68.68,1.45,1.27,2.28,1.77-2.36,1.18-3.99,3.62-3.99,6.44,0,3.98,3.23,7.2,7.2,7.2s7.2-3.22,7.2-7.2c0-1.54-.49-2.97-1.31-4.14,1.17.83,2.6,1.31,4.14,1.31,3.97,0,7.2-3.22,7.2-7.2,0-.94-.18-1.84-.51-2.67,1.29,1.21,3.02,1.95,4.93,1.95,3.98,0,7.2-3.22,7.2-7.2s-3.22-7.2-7.2-7.2-7.2,3.22-7.2,7.2c0,.94.18,1.84.51,2.67-.25-.24-.52-.46-.81-.66,0-.14,0-.29,0-.43,0-3.95-1.99-7.44-5.03-9.52-.73-3.21-3.59-5.6-7.02-5.6-.81,0-1.59.14-2.32.39.08-.53.12-1.08.12-1.63s-.04-1.08-.11-1.6c1.86,1.29,4.11,2.04,6.54,2.04.62,0,1.22-.05,1.81-.14-.03.25-.04.51-.04.76,0,3.97,3.22,7.2,7.2,7.2,2.97,0,5.51-1.79,6.61-4.36.72-.35,1.33-.89,1.76-1.55,1.92,1.45,4.3,2.31,6.89,2.31-1.48,1.32-2.41,3.24-2.41,5.37,0,3.22,2.11,5.94,5.03,6.86-.02.17-.03.35-.03.53,0,.89.27,1.72.74,2.41-1.56,1.32-2.56,3.3-2.56,5.5,0,.39.03.78.09,1.16-1.32-1.6-3.32-2.63-5.56-2.63-3.98,0-7.2,3.22-7.2,7.2,0,1.03.22,2.01.61,2.9-1.23-.99-2.79-1.58-4.49-1.58-3.98,0-7.2,3.22-7.2,7.2,0,.59.07,1.15.2,1.7-3.48.2-6.54,1.94-8.52,4.55-2.29.11-4.11,2-4.11,4.31,0,1.45.71,2.73,1.81,3.52.44,5.86,5.27,10.5,11.21,10.64.47,3.52,3.48,6.24,7.14,6.24,3.97,0,7.2-3.22,7.2-7.2,0-2.59-1.37-4.86-3.43-6.13.57-1.36.88-2.86.88-4.42,0-2.49-.79-4.79-2.13-6.67,1.47-.69,2.67-1.86,3.39-3.31,2.09-.31,3.69-2.1,3.69-4.27,0-.11,0-.23-.02-.33.32.04.64.07.97.07,3.97,0,7.2-3.22,7.2-7.2,0-.39-.03-.78-.1-1.16,1.32,1.6,3.32,2.63,5.56,2.63,3.97,0,7.2-3.22,7.2-7.2,0-2.89-1.71-5.38-4.17-6.53.15-.44.23-.9.23-1.39,0-1.03-.36-1.97-.96-2.71,1.08-1.26,1.73-2.89,1.73-4.68,0-3.54-2.55-6.48-5.91-7.08,1.6-.99,2.93-2.35,3.89-3.97.41.47.89.88,1.41,1.22-.1.62-.16,1.26-.16,1.91,0,2.2.62,4.25,1.69,6,.1,3.89,3.28,7.01,7.19,7.01,1.75,0,3.35-.62,4.59-1.65,1.74-.3,3.34-.98,4.72-1.97,1.15,2.45,3.64,4.15,6.52,4.15,3.97,0,7.2-3.22,7.2-7.2s-3.22-7.2-7.2-7.2c-.59,0-1.15.07-1.7.2-.34-6.05-5.36-10.86-11.5-10.86-.38,0-.76.02-1.13.06-1.24-2.18-3.58-3.65-6.26-3.65-1.78,0-3.41.65-4.67,1.72-.04-.1-.08-.2-.13-.29,2.97-.89,5.14-3.64,5.14-6.9,0-3.97-3.22-7.2-7.2-7.2s-7.2,3.23-7.2,7.2c0,.06,0,.11,0,.16-.41-.04-.83-.07-1.25-.07-1.14,0-2.23.17-3.27.47.88-1.49,1.43-3.19,1.56-5.01.22.02.43.03.65.03,3.98,0,7.2-3.22,7.2-7.2,0-2.56-1.33-4.8-3.34-6.08.24-.11.47-.24.69-.39,1.22.95,2.76,1.52,4.42,1.52,3.97,0,7.2-3.22,7.2-7.2s-3.23-7.2-7.2-7.2c-3.21,0-5.92,2.09-6.85,4.99h0c-2.39,0-4.32,1.94-4.32,4.32,0,1.12.43,2.14,1.13,2.91-2.22.33-4.1,1.68-5.17,3.55-.18-.11-.37-.21-.56-.31,2.07-1.26,3.46-3.54,3.46-6.15,0-3.98-3.22-7.2-7.2-7.2s-7.2,3.22-7.2,7.2M1582.89,137.86c0,3.98-3.22,7.2-7.2,7.2s-7.2-3.22-7.2-7.2,3.22-7.2,7.2-7.2,7.2,3.22,7.2,7.2M1643.06,271.41c0,3.97-3.22,7.2-7.2,7.2s-7.2-3.23-7.2-7.2,3.22-7.2,7.2-7.2,7.2,3.22,7.2,7.2M1654.53,95.64c0-3.98,3.22-7.2,7.2-7.2,1.07,0,2.08.24,2.99.65-.2-.3-.39-.63-.54-.96-.41.23-.89.36-1.39.36-1.59,0-2.88-1.29-2.88-2.88s1.29-2.88,2.88-2.88c.37,0,.72.07,1.05.2.92-2.92,3.65-5.05,6.87-5.05,3.98,0,7.2,3.22,7.2,7.2s-3.22,7.2-7.2,7.2c-1.07,0-2.08-.24-2.99-.65.77,1.15,1.22,2.52,1.22,4.01,0,3.98-3.22,7.2-7.2,7.2s-7.2-3.22-7.2-7.2M1734.91,138.39c0,3.98-3.22,7.2-7.2,7.2s-7.2-3.22-7.2-7.2,3.22-7.2,7.2-7.2,7.2,3.22,7.2,7.2M1738.08,125.69c-1.21-.76-2.02-2.12-2.02-3.66,0-2.39,1.94-4.32,4.32-4.32s4.32,1.93,4.32,4.32c0,1.21-.5,2.31-1.31,3.1,3.03.85,5.25,3.63,5.25,6.93,0,3.98-3.22,7.2-7.2,7.2s-7.2-3.22-7.2-7.2c0-2.76,1.56-5.16,3.85-6.37M1729.63,124.14c0,3.98-3.22,7.2-7.2,7.2-3.61,0-6.6-2.66-7.12-6.12-2.01-.37-3.54-2.13-3.54-4.25,0-2.39,1.93-4.32,4.32-4.32,1.13,0,2.16.43,2.93,1.14,1.02-.55,2.17-.86,3.41-.86,3.98,0,7.2,3.22,7.2,7.2M1694.45,195.59c3.98,0,7.2,3.22,7.2,7.2s-3.22,7.2-7.2,7.2c-3.59,0-6.56-2.63-7.11-6.06.04.29.06.59.06.9,0,1.39-.39,2.68-1.07,3.78.19.49.3,1.02.3,1.58,0,.88-.26,1.7-.72,2.38,2.44,1.15,4.13,3.64,4.13,6.51s-1.83,5.56-4.43,6.65c-.33,1.22-1.45,2.12-2.77,2.12s-2.44-.9-2.78-2.12c-2.6-1.09-4.42-3.65-4.42-6.65,0-2.57,1.35-4.83,3.38-6.1-.3-.36-.55-.76-.72-1.21-3.05-.84-5.29-3.63-5.29-6.94,0-3.97,3.22-7.2,7.2-7.2,3.59,0,6.57,2.63,7.11,6.06-.04-.29-.06-.59-.06-.9,0-3.98,3.23-7.2,7.2-7.2M1630.59,224.09c.41,0,.8.04,1.19.1-1.27-1.3-2.06-3.08-2.06-5.04,0-3.98,3.22-7.2,7.2-7.2,3.35,0,6.16,2.29,6.97,5.38,1.54.06,2.77,1.32,2.77,2.88s-1.29,2.88-2.88,2.88c-.27,0-.52-.04-.76-.11-1.27,2.02-3.53,3.37-6.1,3.37-.41,0-.81-.04-1.2-.1,1.27,1.3,2.06,3.08,2.06,5.04,0,.94-.18,1.84-.51,2.67.39-.37.83-.69,1.3-.97-.11-.37-.16-.76-.16-1.17,0-2.39,1.94-4.32,4.32-4.32.89,0,1.71.27,2.4.72-.06-.38-.09-.76-.09-1.16,0-3.97,3.22-7.2,7.2-7.2s7.2,3.23,7.2,7.2-3.22,7.2-7.2,7.2c-2.04,0-3.88-.85-5.19-2.21-.03.54-.16,1.05-.37,1.51,1.66,1.32,2.72,3.35,2.72,5.64,0,1.21-.3,2.34-.82,3.34,2.5,2.11,4.09,5.27,4.09,8.8,0,1.63-.34,3.18-.95,4.59,3.21.72,5.61,3.59,5.61,7.02,0,3.98-3.23,7.2-7.2,7.2s-7.2-3.22-7.2-7.2c0-.08,0-.15,0-.23-.58.09-1.17.14-1.78.14-2.09,0-4.05-.56-5.74-1.53-.24,2.16-2.07,3.83-4.29,3.83-2.39,0-4.32-1.93-4.32-4.32s1.8-4.18,4.06-4.31c-.79-1.56-1.23-3.32-1.23-5.19,0-4.25,2.3-7.95,5.72-9.95-.22-.69-.34-1.43-.34-2.19,0-.94.18-1.84.51-2.67-1.29,1.21-3.02,1.95-4.92,1.95-3.98,0-7.2-3.22-7.2-7.2s3.22-7.2,7.2-7.2M1553.33,137.86c0,3.07-1.92,5.69-4.63,6.73.11.38.17.78.17,1.19,0,2.39-1.94,4.32-4.32,4.32s-4.32-1.94-4.32-4.32c0-1.02.36-1.96.95-2.7-1.38-1.31-2.25-3.17-2.25-5.22,0-3.98,3.23-7.2,7.2-7.2s7.2,3.22,7.2,7.2M1709.57,171.65c0,.86-.15,1.68-.43,2.44.12.4.18.82.18,1.25,0,2.39-1.93,4.32-4.32,4.32-.94,0-1.82-.3-2.53-.82-.04,0-.07,0-.11,0-3.98,0-7.2-3.22-7.2-7.2s3.22-7.2,7.2-7.2,7.2,3.22,7.2,7.2M1610.85,116.84c.14.29.28.58.4.88.38-.92.94-1.75,1.64-2.43-.22-.52-.35-1.1-.35-1.71,0-2.08,1.47-3.81,3.42-4.23-.65-1.08-1.02-2.34-1.02-3.69,0-3.97,3.22-7.2,7.2-7.2s7.2,3.23,7.2,7.2-3.23,7.2-7.2,7.2c-.35,0-.7-.03-1.03-.08.05.26.07.52.07.79,0,.15,0,.29-.02.43,2.35,1.19,3.96,3.62,3.96,6.43,0,3.97-3.22,7.2-7.2,7.2-2.55,0-4.79-1.32-6.07-3.32-.3,1.48-.88,2.86-1.68,4.08.11.5.17,1.02.17,1.54,0,3.98-3.22,7.2-7.2,7.2-2.91,0-5.41-1.73-6.55-4.21-1.26-.45-2.41-1.11-3.43-1.94-1.19.88-2.67,1.41-4.27,1.41-3.97,0-7.2-3.22-7.2-7.2s3.22-7.2,7.2-7.2c.25,0,.5.01.74.04,1.33-3.61,4.4-6.38,8.2-7.27,1.21-2.29,3.61-3.85,6.37-3.85,3.98,0,7.2,3.22,7.2,7.2,0,.97-.19,1.89-.54,2.73M1709.95,160.56c0-3.98,3.22-7.2,7.2-7.2s7.2,3.22,7.2,7.2-3.22,7.2-7.2,7.2-7.2-3.22-7.2-7.2M1582.74,141.56c0-3.98,3.22-7.2,7.2-7.2s7.2,3.22,7.2,7.2-3.23,7.2-7.2,7.2-7.2-3.23-7.2-7.2M1581.3,122.56c0,3.98-3.22,7.2-7.2,7.2s-7.2-3.22-7.2-7.2,3.22-7.2,7.2-7.2,7.2,3.22,7.2,7.2M1535.76,123.61c0-3.98,3.22-7.2,7.2-7.2,2.47,0,4.65,1.25,5.95,3.15.7-.5,1.57-.8,2.5-.8.31,0,.62.04.92.1,1.17-2.39,3.63-4.03,6.47-4.03,3.98,0,7.2,3.22,7.2,7.2s-3.22,7.2-7.2,7.2c-2.11,0-4.01-.91-5.32-2.35-.61.33-1.32.53-2.07.53s-1.43-.19-2.04-.51c-1.19,2.33-3.61,3.92-6.41,3.92-3.98,0-7.2-3.22-7.2-7.2M1697.62,124.28c.06.29.1.6.1.91,0,.41-.06.82-.17,1.2.6,1.05.94,2.26.94,3.55,0,3.97-3.22,7.2-7.2,7.2s-7.2-3.22-7.2-7.2c0-3.44,2.42-6.32,5.64-7.03.76-1.23,2.12-2.04,3.67-2.04,1.04,0,1.99.37,2.73.98-.28-.77-.43-1.6-.43-2.46,0-3.98,3.22-7.2,7.2-7.2s7.2,3.22,7.2,7.2-3.22,7.2-7.2,7.2c-2.09,0-3.96-.89-5.28-2.31M1606.3,174.09c-.7,0-1.37-.1-2.01-.29,1.74,1.31,2.87,3.4,2.87,5.75,0,3.98-3.22,7.2-7.2,7.2-.04,0-.09,0-.13,0,2.46,1.14,4.16,3.64,4.16,6.53,0,3.46-2.44,6.35-5.7,7.04.4.06.79.14,1.17.26.62-.34,1.33-.53,2.08-.53,2.39,0,4.32,1.93,4.32,4.32,0,1.23-.52,2.34-1.34,3.13-.02,3.96-3.24,7.16-7.2,7.16s-7.2-3.22-7.2-7.2c0-3.46,2.44-6.35,5.7-7.04-3.51-.48-6.22-3.48-6.22-7.13,0-3.98,3.22-7.2,7.2-7.2.04,0,.09,0,.13,0-2.46-1.15-4.16-3.64-4.16-6.53,0-3.98,3.22-7.2,7.2-7.2.7,0,1.37.1,2.01.29-1.74-1.31-2.87-3.4-2.87-5.75,0-3.97,3.22-7.2,7.2-7.2s7.2,3.22,7.2,7.2-3.22,7.2-7.2,7.2M1604.91,86.66c0-3.98,3.22-7.2,7.2-7.2.7,0,1.38.1,2.02.29.03-2.36,1.95-4.27,4.32-4.27s4.32,1.93,4.32,4.32c0,2.25-1.72,4.1-3.93,4.3.3.8.47,1.66.47,2.56,0,3.98-3.23,7.2-7.2,7.2-.29,0-.57-.02-.84-.05,1.98,1.28,3.29,3.51,3.29,6.05,0,3.98-3.22,7.2-7.2,7.2s-7.18-3.2-7.2-7.16c-.23.04-.47.06-.72.06-.41,0-.8-.06-1.17-.16-1.25,2.14-3.56,3.57-6.22,3.57-3.97,0-7.2-3.22-7.2-7.2s3.23-7.2,7.2-7.2c.08,0,.17,0,.25,0-1.94-1.29-3.23-3.5-3.23-6,0-3.97,3.23-7.2,7.2-7.2s7.2,3.23,7.2,7.2-3.22,7.2-7.2,7.2c-.08,0-.17,0-.25,0,.63.42,1.19.94,1.66,1.53.54-.24,1.13-.37,1.75-.37,1.75,0,3.26,1.04,3.94,2.54,1.14-.76,2.51-1.2,3.98-1.2.29,0,.57.02.84.05-1.98-1.28-3.29-3.51-3.29-6.05M1641.14,92.13c3.97,0,7.2,3.22,7.2,7.2s-3.23,7.2-7.2,7.2c-2.81,0-5.24-1.61-6.43-3.96-.14.02-.29.02-.43.02-2.25,0-4.1-1.72-4.3-3.92-.8.3-1.66.47-2.56.47-3.98,0-7.2-3.22-7.2-7.2s3.22-7.2,7.2-7.2,7.2,3.22,7.2,7.2c0,.7-.1,1.38-.29,2.02.59,0,1.15.13,1.66.35,1.31-1.34,3.13-2.17,5.16-2.17M1557.22,160.22c3.86,0,7.01,3.03,7.19,6.85.65-3.3,3.56-5.79,7.06-5.79,3.98,0,7.2,3.22,7.2,7.2,0,1.48-.45,2.85-1.21,3.99.38.02.74.12,1.06.28,0-.02,0-.03,0-.05,0-3.98,3.22-7.2,7.2-7.2s7.2,3.22,7.2,7.2-3.22,7.2-7.2,7.2c-2.47,0-4.65-1.24-5.94-3.14-.5.87-1.43,1.46-2.5,1.46-1.59,0-2.88-1.29-2.88-2.88,0-.1,0-.2.02-.29-.9.4-1.89.63-2.94.63-3.86,0-7.01-3.03-7.19-6.85-.65,3.3-3.57,5.79-7.06,5.79-3.98,0-7.2-3.22-7.2-7.2s3.22-7.2,7.2-7.2M1694.79,171.12c0,3.98-3.22,7.2-7.2,7.2s-7.2-3.22-7.2-7.2,3.22-7.2,7.2-7.2,7.2,3.22,7.2,7.2M1745.65,198.37c-3.98,0-7.2-3.22-7.2-7.2s3.22-7.2,7.2-7.2,7.2,3.22,7.2,7.2-3.22,7.2-7.2,7.2M1757.99,308.93c0-3.98,3.22-7.2,7.2-7.2s7.2,3.23,7.2,7.2-3.23,7.2-7.2,7.2-7.2-3.22-7.2-7.2M1717.32,402.06c2.58,1.1,4.39,3.65,4.39,6.63,0,3.98-3.22,7.2-7.2,7.2s-7.2-3.22-7.2-7.2c0-3.56,2.58-6.51,5.97-7.09-1.2-.51-2.23-1.34-3-2.37-.63.35-1.35.55-2.11.55-1.01,0-1.94-.35-2.68-.93-1.05,1.12-2.46,1.9-4.03,2.16-.05.06-.1.11-.15.16,2.39,1.17,4.03,3.62,4.03,6.46,0,3.97-3.22,7.2-7.2,7.2-.51,0-1.01-.06-1.49-.16-.12,2.28-2,4.1-4.31,4.1s-4.32-1.93-4.32-4.32c0-2.07,1.46-3.81,3.41-4.23-.31-.81-.49-1.68-.49-2.6,0-1.01.21-1.98.59-2.85-4.37-.51-8-3.45-9.47-7.45-2.54-1.11-4.31-3.65-4.31-6.59,0-3.98,3.22-7.2,7.2-7.2.18,0,.35,0,.53.02-.39-.3-.73-.67-1-1.1-3.24-.7-5.67-3.58-5.67-7.03,0-3.98,3.22-7.2,7.2-7.2s7.2,3.22,7.2,7.2c0,1.29-.34,2.49-.93,3.54.11.37.16.76.16,1.17,0,.61-.13,1.18-.35,1.7.26-.02.52-.03.78-.03,4.05,0,7.61,2.09,9.67,5.26,2.03.68,3.66,2.24,4.44,4.23.38-.11.79-.17,1.21-.17.58,0,1.13.11,1.63.32,1.23-2.2,3.58-3.69,6.28-3.69,3.98,0,7.2,3.22,7.2,7.2,0,3.56-2.58,6.51-5.97,7.09M1654,342.18c0-3.98,3.22-7.2,7.2-7.2s7.2,3.22,7.2,7.2-3.22,7.2-7.2,7.2-7.2-3.23-7.2-7.2M1739.85,309.79c-3.98,0-7.2-3.22-7.2-7.2,0-3.49,2.48-6.4,5.78-7.06-.49-.7-.78-1.56-.78-2.48,0-2.39,1.93-4.32,4.32-4.32s4.32,1.93,4.32,4.32c0,1.6-.87,2.99-2.16,3.74,1.78,1.31,2.93,3.42,2.93,5.8,0,.27-.02.53-.04.79.08,0,.16-.01.23-.01,1.59,0,2.88,1.29,2.88,2.88s-1.29,2.88-2.88,2.88c-1.02,0-1.91-.53-2.42-1.33-1.29,1.23-3.04,1.99-4.97,1.99M1753.57,305.04c-3.98,0-7.2-3.22-7.2-7.2s3.22-7.2,7.2-7.2,7.2,3.22,7.2,7.2-3.22,7.2-7.2,7.2M1617.68,336.24c-.17.13-.33.26-.48.4-.02-.45-.07-.88-.17-1.31.19.32.41.62.65.91M1637.29,345.09c-.12-.02-.25-.03-.37-.03-.22,0-.42.03-.63.07,0-.28-.02-.57-.04-.84.32.29.67.56,1.04.8M1637.26,375.43c0-.24-.01-.47-.03-.69,1.21-.09,2.36-.36,3.44-.79,1.31,1.75,3.4,2.88,5.76,2.88,3.97,0,7.2-3.22,7.2-7.2,0-3.47-2.46-6.37-5.73-7.05-.1-1.65-.54-3.21-1.26-4.6,1.03.57,2.22.9,3.48.9,3.97,0,7.2-3.22,7.2-7.2s-3.23-7.2-7.2-7.2c-2.11,0-4.01.91-5.32,2.35-2.11.28-3.75,2.09-3.75,4.28,0,.63.14,1.23.38,1.78-1.52-.74-3.23-1.16-5.04-1.16-.75,0-1.49.07-2.2.21.38-.54.71-1.1,1-1.7.48.36,1.08.58,1.73.58,1.59,0,2.88-1.29,2.88-2.88,0-.83-.35-1.57-.91-2.09.71.23,1.47.36,2.25.36,3.97,0,7.2-3.22,7.2-7.2s-3.23-7.2-7.2-7.2c-3.76,0-6.84,2.88-7.17,6.55-1.12-1.49-2.6-2.69-4.3-3.49l-.03-.05c.48-.97.75-2.05.75-3.2,0-3.97-3.22-7.2-7.2-7.2s-7.2,3.22-7.2,7.2c0,.54.06,1.06.17,1.57-1.26-2.09-3.55-3.49-6.17-3.49-3.98,0-7.2,3.23-7.2,7.2s3.22,7.2,7.2,7.2c1.25,0,2.43-.32,3.45-.88-.12.68-.19,1.37-.19,2.09,0,6.36,5.16,11.52,11.52,11.52.75,0,1.49-.07,2.2-.21-.49.69-.91,1.45-1.24,2.24-1.25-1.07-2.88-1.71-4.66-1.71-3.98,0-7.2,3.22-7.2,7.2s3.22,7.2,7.2,7.2c1.36,0,2.63-.38,3.72-1.03-1.2,1.29-1.94,3.02-1.94,4.92,0,3.98,3.23,7.2,7.2,7.2s7.2-3.22,7.2-7.2M1545.94,304.7c0,3.98-3.22,7.2-7.2,7.2s-7.2-3.22-7.2-7.2,3.22-7.2,7.2-7.2,7.2,3.22,7.2,7.2M1506.54,314.54c-3.98,0-7.2-3.22-7.2-7.2s3.22-7.2,7.2-7.2,7.2,3.22,7.2,7.2-3.23,7.2-7.2,7.2M1573.24,323.18c0-3.98,3.22-7.2,7.2-7.2s7.2,3.22,7.2,7.2-3.22,7.2-7.2,7.2-7.2-3.22-7.2-7.2M1602.42,323.57s0,.09,0,.13c0,3.44-2.41,6.32-5.64,7.03.73.77,1.17,1.82,1.17,2.96,0,2.39-1.93,4.32-4.32,4.32s-4.32-1.93-4.32-4.32c0-1.63.91-3.05,2.25-3.79-2.12-1.25-3.54-3.56-3.54-6.2,0-3.98,3.22-7.2,7.2-7.2,2.89,0,5.38,1.7,6.53,4.16,0-.04,0-.08,0-.13,0-3.98,3.22-7.2,7.2-7.2.83,0,1.62.14,2.36.4.68-.46,1.51-.72,2.39-.72,2.39,0,4.32,1.94,4.32,4.32,0,1.48-.74,2.79-1.88,3.56-.19,3.81-3.34,6.84-7.19,6.84-2.89,0-5.38-1.7-6.53-4.16M1544.55,298.71c-3.43,0-6.3-2.4-7.02-5.62-2.06-.33-3.63-2.11-3.63-4.26,0-2.39,1.93-4.32,4.32-4.32.97,0,1.86.32,2.58.85,1.09-.67,2.38-1.06,3.76-1.06,3.98,0,7.2,3.22,7.2,7.2s-3.22,7.2-7.2,7.2M1572.52,405.86c-3.98,0-7.2-3.22-7.2-7.2,0-.23.01-.46.04-.69-1.72-.57-2.96-2.19-2.96-4.1,0-2.39,1.94-4.32,4.32-4.32,1.62,0,3.03.89,3.77,2.21.65-.19,1.33-.29,2.04-.29,1.9,0,3.63.74,4.92,1.94-.66-1.09-1.03-2.36-1.03-3.72,0-3.98,3.22-7.2,7.2-7.2,2.6,0,4.87,1.37,6.14,3.43.24-.04.48-.06.73-.06,2.39,0,4.32,1.93,4.32,4.32s-1.94,4.32-4.32,4.32c-.46,0-.91-.07-1.33-.21-1.32,1.59-3.31,2.6-5.54,2.6-1.9,0-3.63-.74-4.92-1.94.66,1.08,1.03,2.36,1.03,3.72,0,3.97-3.22,7.2-7.2,7.2M1658.03,385.8c-3.97,0-7.2-3.22-7.2-7.2s3.23-7.2,7.2-7.2c1.26,0,2.44.32,3.47.89.39-.19.82-.3,1.28-.3,1.59,0,2.88,1.29,2.88,2.88,0,.71-.25,1.35-.68,1.86.16.6.25,1.23.25,1.88,0,3.98-3.22,7.2-7.2,7.2M1526.6,300.29c-3.98,0-7.2-3.22-7.2-7.2s3.22-7.2,7.2-7.2,7.2,3.22,7.2,7.2-3.22,7.2-7.2,7.2M1717.34,289.92c0-3.98,3.22-7.2,7.2-7.2s7.2,3.22,7.2,7.2-3.22,7.2-7.2,7.2-7.2-3.22-7.2-7.2M1550.02,299.95c0-3.95,3.18-7.15,7.11-7.2.15-2.25,2.02-4.02,4.31-4.02s4.32,1.93,4.32,4.32c0,1.57-.84,2.94-2.09,3.7.48.96.75,2.05.75,3.2,0,3.97-3.22,7.2-7.2,7.2s-7.2-3.22-7.2-7.2M1672.81,376.82c-3.98,0-7.2-3.22-7.2-7.2,0-2.75,1.54-5.13,3.8-6.35-.58-.1-1.12-.32-1.6-.64-.46,3.53-3.48,6.26-7.14,6.26-3.98,0-7.2-3.22-7.2-7.2s3.22-7.2,7.2-7.2c2.26,0,4.28,1.04,5.6,2.67.69-1.46,2.18-2.47,3.9-2.47,2.39,0,4.32,1.94,4.32,4.32,0,1.38-.65,2.6-1.65,3.4,3.96.02,7.17,3.23,7.17,7.2s-3.22,7.2-7.2,7.2M1577.46,307.87c0-3.97,3.22-7.2,7.2-7.2s7.2,3.23,7.2,7.2c0,1.64-.55,3.16-1.48,4.37-.53,1.78-2.18,3.08-4.14,3.08-.51,0-1-.09-1.45-.25-.04,0-.08,0-.13,0-3.98,0-7.2-3.22-7.2-7.2M1563.21,305.76c0-3.98,3.22-7.2,7.2-7.2s7.2,3.22,7.2,7.2-3.22,7.2-7.2,7.2-7.2-3.23-7.2-7.2M1670.7,378.26c3.98,0,7.2,3.22,7.2,7.2s-3.22,7.2-7.2,7.2-7.2-3.22-7.2-7.2,3.22-7.2,7.2-7.2"/>
  </g>
</svg>