<?xml version="1.0" encoding="UTF-8"?><svg id="Layer_2" xmlns="http://www.w3.org/2000/svg" viewBox="0 0 575.88 133.22"><g id="Layer_1-2"><path d="M185.22,38.54h9.03s.08,0,.12,0c.01,0,.03,0,.04,0,1.9-.02,3.64-.47,5.21-1.38,1.59.91,3.33,1.36,5.21,1.38.01,0,.03,0,.05,0,.04,0,.08,0,.11,0h.05s.08,0,.12,0c.01,0,.02,0,.04,0,1.9-.02,3.64-.47,5.21-1.38,1.64.93,3.43,1.39,5.37,1.39h18.08c1.97,0,3.76-.45,5.37-1.39,1.59.91,3.33,1.36,5.21,1.38.01,0,.03,0,.05,0,.04,0,.07,0,.11,0h.05s.02,0,.02,0c.09,0,.16,0,.21-.01,2.66-.06,5.18-1.14,6.65-2.61v-15.79h-3v14.5c-1.01.53-2.5.81-3.91.81s-2.87-.28-3.88-.81v-8.7h-3v8.7c-1.08.53-2.37.81-3.91.81h-5.17c1.69-1.34,2.55-3.03,2.55-5.02,0-3.46-2.62-5.78-6.38-5.78s-6.41,2.32-6.41,5.78c0,1.99.86,3.68,2.55,5.02h-5.17c-1.44,0-2.87-.28-3.88-.81v-8.7h-3v8.7c-1.08.53-2.37.81-3.91.81-1.44,0-2.88-.28-3.88-.81v-8.7h-3v8.7c-1.08.53-2.37.81-3.91.81h-3.83v-8.37c-1.31-.73-3.41-1.39-5.52-1.39-4.14,0-6.89,2.5-6.89,6.43s2.87,6.43,7.24,6.43ZM224.84,27.52c1.99,0,3.38,1.29,3.38,3.28,0,.98-.35,1.87-1.03,2.6s-1.46,1.26-2.35,1.64c-.91-.35-1.71-.91-2.4-1.64-.68-.73-1.01-1.61-1.01-2.6,0-1.94,1.41-3.28,3.4-3.28ZM184.64,28.5c1.03,0,1.97.2,2.75.63v6.31h-2.6c-2.32,0-3.83-1.21-3.83-3.43s1.56-3.51,3.68-3.51Z" style="fill:#f7f8f9;"/><path d="M182.45,23.48c.98,0,1.79-.81,1.79-1.82s-.81-1.82-1.79-1.82c-1.03,0-1.84.81-1.84,1.82s.81,1.82,1.84,1.82Z" style="fill:#f7f8f9;"/><path d="M187.37,23.48c1.01,0,1.82-.81,1.82-1.82s-.81-1.82-1.82-1.82-1.79.81-1.79,1.82.78,1.82,1.79,1.82Z" style="fill:#f7f8f9;"/><path d="M200.35,42.19c0,.98.78,1.79,1.79,1.79s1.82-.81,1.82-1.79c0-1.03-.81-1.82-1.82-1.82s-1.79.78-1.79,1.82Z" style="fill:#f7f8f9;"/><path d="M197.23,43.99c.98,0,1.79-.81,1.79-1.79s-.78-1.82-1.79-1.82-1.84.78-1.84,1.82.81,1.79,1.84,1.79Z" style="fill:#f7f8f9;"/><path d="M210.47,23.66c1.01,0,1.82-.81,1.82-1.82s-.81-1.84-1.82-1.84-1.84.81-1.84,1.84.81,1.82,1.84,1.82Z" style="fill:#f7f8f9;"/><path d="M222.37,22.45c.98,0,1.79-.81,1.79-1.82s-.81-1.82-1.79-1.82c-1.03,0-1.84.81-1.84,1.82s.81,1.82,1.84,1.82Z" style="fill:#f7f8f9;"/><path d="M227.29,22.45c1.01,0,1.82-.81,1.82-1.82s-.81-1.82-1.82-1.82-1.79.81-1.79,1.82.78,1.82,1.79,1.82Z" style="fill:#f7f8f9;"/><path d="M236.85,23.66c.98,0,1.79-.81,1.79-1.82s-.81-1.82-1.79-1.82c-1.03,0-1.84.81-1.84,1.82s.81,1.82,1.84,1.82Z" style="fill:#f7f8f9;"/><path d="M241.77,23.66c1.01,0,1.82-.81,1.82-1.82s-.81-1.82-1.82-1.82-1.79.81-1.79,1.82.78,1.82,1.79,1.82Z" style="fill:#f7f8f9;"/><rect x="256.65" y="20.13" width="3" height="18.41" style="fill:#f7f8f9;"/><path d="M270.95,38.54h2.19c-.18,2.5-1.46,3.68-4.36,3.68-1.49,0-3.08-.33-4.06-.71l-.53,2.85c1.34.48,3,.73,4.49.73,4.62,0,7.47-2.3,7.47-7.44v-10.11c-1.84-.93-3.71-1.39-5.55-1.39-4.21,0-6.91,2.52-6.91,6.23s2.7,6.15,7.26,6.15ZM270.42,28.95c.93,0,1.84.2,2.72.63v5.85h-2.67c-2.24,0-3.81-1.19-3.81-3.23s1.56-3.25,3.76-3.25Z" style="fill:#f7f8f9;"/><path d="M297.07,35.44h-3.66c-1.69-.18-2.75-.98-2.75-2.7,0-1.54.88-2.42,2.27-2.42.68,0,1.29.23,1.77.66l2.02-1.89c-.93-.88-2.4-1.46-3.93-1.46-2.85,0-4.82,2.04-4.82,4.77,0,1.21.35,2.22,1.09,3.05h-2.45v3.1h10.47v-3.1Z" style="fill:#f7f8f9;"/><path d="M302.72,37.18c1.4.79,3.36,1.33,5.51,1.36.02,0,.05,0,.07,0,.03,0,.06,0,.09,0h43.76c2.75,0,5.37-1.11,6.89-2.62v-15.79h-3v14.5c-1.01.53-2.5.81-3.91.81h-5.17c1.69-1.34,2.55-3.03,2.55-5.02,0-3.46-2.62-5.78-6.38-5.78s-6.41,2.32-6.41,5.78c0,1.99.86,3.68,2.55,5.02h-8.85v-3.38c0-2.24-.58-3.99-1.74-5.17-1.13-1.19-2.65-1.79-4.54-1.79-3.05,0-5.7,1.61-8.8,4.82v-3.03h-3v8.55h-3.91c-1.44,0-2.88-.28-3.91-.81v-14.5h-3v14.98c0,1.08.3,1.59,1.21,2.07ZM343.13,27.52c1.99,0,3.38,1.29,3.38,3.28,0,.98-.35,1.87-1.03,2.6-.68.73-1.46,1.26-2.35,1.64-.91-.35-1.72-.91-2.4-1.64-.68-.73-1.01-1.61-1.01-2.6,0-1.94,1.41-3.28,3.4-3.28ZM315.33,33.59c3.3-3.83,5.78-5.57,8.32-5.57,1.34,0,2.3.43,2.87,1.29.61.86.91,1.94.91,3.23v2.9h-12.11v-1.84Z" style="fill:#f7f8f9;"/><path d="M318.26,22.82c1.01,0,1.82-.81,1.82-1.82s-.81-1.84-1.82-1.84-1.84.81-1.84,1.84.81,1.82,1.84,1.82Z" style="fill:#f7f8f9;"/><path d="M343.1,22.45c1.01,0,1.82-.81,1.82-1.82s-.81-1.84-1.82-1.84-1.84.81-1.84,1.84.81,1.82,1.84,1.82Z" style="fill:#f7f8f9;"/><rect x="364.13" y="20.13" width="3" height="18.41" style="fill:#f7f8f9;"/><path d="M378.43,38.54h2.19c-.18,2.5-1.46,3.68-4.36,3.68-1.49,0-3.08-.33-4.06-.71l-.53,2.85c1.34.48,3,.73,4.49.73,4.62,0,7.47-2.3,7.47-7.44v-10.11c-1.84-.93-3.71-1.39-5.55-1.39-4.21,0-6.91,2.52-6.91,6.23s2.7,6.15,7.26,6.15ZM377.9,28.95c.93,0,1.84.2,2.72.63v5.85h-2.67c-2.24,0-3.81-1.19-3.81-3.23s1.56-3.25,3.76-3.25Z" style="fill:#f7f8f9;"/><path d="M401.49,38.54h9.96c3.61,0,6.48-.63,8.17-1.54v-11.07h-3v8.78c-.91.43-2.62.73-4.74.73h-10.19c-3.03,0-4.54-1.29-4.54-3.86,0-.86.15-1.87.48-3l-2.75-.5c-.48,1.56-.71,3.03-.71,4.39,0,4.41,2.67,6.08,7.31,6.08Z" style="fill:#f7f8f9;"/><path d="M409.4,26.76c1.01,0,1.82-.81,1.82-1.82s-.81-1.82-1.82-1.82-1.79.81-1.79,1.82.78,1.82,1.79,1.82Z" style="fill:#f7f8f9;"/><path d="M404.49,26.76c.98,0,1.79-.81,1.79-1.82s-.81-1.82-1.79-1.82c-1.03,0-1.84.81-1.84,1.82s.81,1.82,1.84,1.82Z" style="fill:#f7f8f9;"/><path d="M437.85,35.91v-15.79h-3v14.35c-.88.61-2.12.93-3.71.96l-2.83-12.08h-2.98l2.77,12.08h-4.84v3.1h7.74c2.75,0,5.32-1.11,6.84-2.62Z" style="fill:#f7f8f9;"/><path d="M444.16,37.18c1.4.79,3.36,1.33,5.51,1.36.02,0,.05,0,.07,0,.03,0,.06,0,.09,0h25.72s.04,0,.06,0c.04,0,.08,0,.11,0,1.28-.01,2.53-.19,3.71-.52,1.24-.35,2.24-.78,3-1.31v-10.77h-3v8.85c-.88.4-2.37.66-3.91.66h-3.68v-3.38c0-2.24-.58-3.99-1.74-5.17-1.13-1.19-2.65-1.79-4.54-1.79-3.05,0-5.7,1.61-8.8,4.82v-3.03h-3v8.55h-3.91c-1.44,0-2.88-.28-3.91-.81v-14.5h-3v14.98c0,1.08.3,1.59,1.21,2.07ZM456.77,33.59c3.3-3.83,5.78-5.57,8.32-5.57,1.34,0,2.3.43,2.87,1.29.61.86.91,1.94.91,3.23v2.9h-12.11v-1.84Z" style="fill:#f7f8f9;"/><path d="M478.41,23.66c.98,0,1.79-.81,1.79-1.82s-.81-1.82-1.79-1.82c-1.03,0-1.84.81-1.84,1.82s.81,1.82,1.84,1.82Z" style="fill:#f7f8f9;"/><path d="M483.32,23.66c1.01,0,1.82-.81,1.82-1.82s-.81-1.82-1.82-1.82-1.79.81-1.79,1.82.78,1.82,1.79,1.82Z" style="fill:#f7f8f9;"/><path d="M500.68,35.91v-15.79h-3v14.35c-.88.61-2.12.93-3.71.96l-2.83-12.08h-2.98l2.77,12.08h-4.84v3.1h7.74c2.75,0,5.32-1.11,6.84-2.62Z" style="fill:#f7f8f9;"/><rect x="505.77" y="20.13" width="3" height="18.41" style="fill:#f7f8f9;"/><path d="M528.49,23.48c1.01,0,1.82-.81,1.82-1.82s-.81-1.82-1.82-1.82-1.79.81-1.79,1.82.78,1.82,1.79,1.82Z" style="fill:#f7f8f9;"/><path d="M523.58,23.48c.98,0,1.79-.81,1.79-1.82s-.81-1.82-1.79-1.82c-1.03,0-1.84.81-1.84,1.82s.81,1.82,1.84,1.82Z" style="fill:#f7f8f9;"/><path d="M543.45,21.59h-1.46c-1.08,0-1.59-.45-1.59-1.13,0-.53.38-.96.96-.96.3,0,.58.1.81.3l1.09-1.16c-.48-.48-1.21-.86-2.09-.86-1.41,0-2.4,1.01-2.4,2.3,0,.58.2,1.08.58,1.51h-1.21v1.97h5.32v-1.97Z" style="fill:#f7f8f9;"/><path d="M550.94,42.19c0-1.01-.78-1.82-1.79-1.82s-1.84.78-1.84,1.82.81,1.79,1.84,1.79,1.79-.81,1.79-1.79Z" style="fill:#f7f8f9;"/><path d="M554.07,40.38c-1.01,0-1.79.78-1.79,1.82s.78,1.79,1.79,1.79,1.82-.81,1.82-1.79c0-1.03-.81-1.82-1.82-1.82Z" style="fill:#f7f8f9;"/><path d="M572.96,24.36c-1.94-1.69-4.49-2.55-7.67-2.55-1.01,0-2.07.08-3.15.23v2.77c1.01-.18,2.04-.28,3.08-.28,2.22,0,4.06.61,5.5,1.79,1.44,1.19,2.17,3.13,2.17,5.83v3.3h-4.11c.93-.98,1.39-2.17,1.39-3.61,0-3.05-2.4-5.04-5.37-5.04s-5.32,1.94-5.32,5.04c0,1.44.45,2.65,1.36,3.58h-3.88c-1.44,0-2.87-.28-3.88-.81v-8.7h-3v8.7c-1.08.53-2.37.81-3.91.81-1.44,0-2.87-.28-3.88-.81v-8.7h-3v8.7c-1.08.53-2.37.81-3.91.81h-3.83v-8.37c-1.31-.73-3.41-1.39-5.52-1.39-4.14,0-6.89,2.5-6.89,6.43s2.87,6.43,7.24,6.43h9.03s.08,0,.12,0c.01,0,.03,0,.04,0,1.9-.02,3.64-.47,5.21-1.38,1.59.91,3.33,1.36,5.21,1.38.01,0,.03,0,.05,0,.04,0,.07,0,.11,0h.05s.08,0,.12,0c.01,0,.03,0,.04,0,1.9-.02,3.64-.47,5.21-1.38,1.59.91,3.33,1.36,5.21,1.38.01,0,.03,0,.04,0,.04,0,.08,0,.11,0h18.97v-6.23c0-3.61-.98-6.26-2.93-7.95ZM528.52,35.44h-2.6c-2.32,0-3.83-1.21-3.83-3.43s1.56-3.51,3.68-3.51c1.03,0,1.97.2,2.75.63v6.31ZM564.79,35.44c-1.69-.23-2.6-1.46-2.6-3.2,0-1.64,1.11-2.72,2.6-2.72s2.6,1.08,2.6,2.72c0,1.79-.88,2.98-2.6,3.2Z" style="fill:#f7f8f9;"/><path d="M187.23,61.88c1.8,0,3.48.83,4.56,2.2l2.7-1.7c-1.68-2.2-4.36-3.56-7.29-3.56-4.96-.1-9.32,4.16-9.22,9.02-.1,4.86,4.26,9.12,9.22,9.02,2.93,0,5.61-1.35,7.29-3.56l-2.7-1.75c-1.13,1.4-2.75,2.25-4.56,2.25-3.28,0-5.81-2.68-5.81-5.96s2.53-5.96,5.81-5.96Z" style="fill:#f7f8f9;"/><path d="M206.79,63.83c-3.88,0-6.94,2.83-6.94,6.51s3.06,6.51,6.94,6.51c3.88.08,7.06-2.88,6.99-6.51.08-3.63-3.11-6.59-6.99-6.51ZM206.79,74.25c-2.23,0-3.93-1.7-3.93-3.91s1.7-3.91,3.93-3.91,3.98,1.7,3.98,3.91-1.7,3.91-3.98,3.91Z" style="fill:#f7f8f9;"/><path d="M235.66,66.31c1.6,0,2.58,1.03,2.58,2.85v7.44h3.05v-8.31c0-2.88-1.83-4.46-4.46-4.46-1.93,0-3.56.55-5.28,2.03-.7-1.33-2.08-2.03-3.76-2.03s-3.36.65-4.86,1.95v-1.7h-3.06v12.52h3.06v-8.94c1.2-.98,2.23-1.35,3.53-1.35,1.6,0,2.6,1.03,2.6,2.85v7.44h3.03v-7.19c0-.63-.05-1.23-.18-1.75,1.1-.9,2.35-1.35,3.73-1.35Z" style="fill:#f7f8f9;"/><path d="M264.73,63.83c-1.93,0-3.56.55-5.28,2.03-.7-1.33-2.08-2.03-3.76-2.03s-3.36.65-4.86,1.95v-1.7h-3.06v12.52h3.06v-8.94c1.2-.98,2.23-1.35,3.53-1.35,1.6,0,2.6,1.03,2.6,2.85v7.44h3.03v-7.19c0-.63-.05-1.23-.18-1.75,1.1-.9,2.35-1.35,3.73-1.35,1.6,0,2.58,1.03,2.58,2.85v7.44h3.06v-8.31c0-2.88-1.83-4.46-4.46-4.46Z" style="fill:#f7f8f9;"/><path d="M285.22,72.8c-1.13,1-2.55,1.55-3.88,1.55-1.8,0-2.8-1.03-2.8-2.83v-7.44h-3.03v8.31c0,2.78,1.73,4.46,4.56,4.46,1.8,0,3.63-.65,5.16-1.85v1.6h3.06v-12.52h-3.06v8.72Z" style="fill:#f7f8f9;"/><path d="M304.73,69.17v7.44h3.03v-8.31c0-2.78-1.73-4.46-4.56-4.46-1.78,0-3.63.65-5.16,1.83v-1.58h-3.06v12.52h3.06v-8.72c1.13-1,2.55-1.58,3.88-1.58,1.8,0,2.8,1.05,2.8,2.85Z" style="fill:#f7f8f9;"/><rect x="314.49" y="64.08" width="3.03" height="12.52" style="fill:#f7f8f9;"/><path d="M315.99,59.35c-.93,0-1.68.68-1.68,1.55s.75,1.55,1.68,1.55,1.65-.68,1.65-1.55c0-.83-.75-1.55-1.65-1.55Z" style="fill:#f7f8f9;"/><path d="M330.64,74.25c-2.13,0-3.81-1.73-3.81-3.91s1.68-3.91,3.81-3.91c1.25,0,2.25.43,3.03,1.3l2.33-1.3c-1.28-1.63-3.28-2.6-5.41-2.6-3.61-.08-6.81,2.98-6.74,6.51-.07,3.53,3.13,6.59,6.74,6.51,2.2,0,4.21-1,5.51-2.7l-2.35-1.3c-.73.9-1.8,1.4-3.11,1.4Z" style="fill:#f7f8f9;"/><path d="M348.27,63.83c-2.03,0-4.06.55-5.79,1.63l.98,2.13c1.33-.88,2.7-1.33,4.11-1.33,1.98,0,3.01.88,3.01,2.55v.15h-4.26c-3.01,0-4.88,1.48-4.88,3.91s1.8,3.98,4.68,3.98c1.68,0,3.16-.55,4.46-1.63v1.38h3.03v-8.09c0-2.98-1.93-4.68-5.33-4.68ZM350.58,73.58c-1.1.7-2.28,1.05-3.56,1.05-1.63,0-2.58-.7-2.58-1.93s.98-1.93,2.65-1.93h3.48v2.81Z" style="fill:#f7f8f9;"/><path d="M368.01,73.83c-.6.3-1.25.45-1.93.45-1.28,0-2.18-.78-2.18-2.25v-5.51h3.56v-2.43h-3.56v-3.48h-3.03v3.48h-1.98v2.43h1.98v5.99c0,2.78,1.78,4.36,4.26,4.36,1.1,0,2.2-.3,3.28-.88l-.4-2.15Z" style="fill:#f7f8f9;"/><rect x="374.39" y="64.08" width="3.03" height="12.52" style="fill:#f7f8f9;"/><path d="M375.89,59.35c-.93,0-1.68.68-1.68,1.55s.75,1.55,1.68,1.55,1.65-.68,1.65-1.55c0-.83-.75-1.55-1.65-1.55Z" style="fill:#f7f8f9;"/><path d="M397.68,70.35c.08-3.63-3.11-6.59-6.99-6.51-3.88,0-6.94,2.83-6.94,6.51s3.06,6.51,6.94,6.51c3.88.08,7.06-2.88,6.99-6.51ZM386.76,70.35c0-2.2,1.7-3.91,3.93-3.91s3.98,1.7,3.98,3.91-1.7,3.91-3.98,3.91-3.93-1.7-3.93-3.91Z" style="fill:#f7f8f9;"/><path d="M413.56,69.17v7.44h3.03v-8.31c0-2.78-1.73-4.46-4.56-4.46-1.78,0-3.63.65-5.16,1.83v-1.58h-3.06v12.52h3.06v-8.72c1.13-1,2.55-1.58,3.88-1.58,1.8,0,2.8,1.05,2.8,2.85Z" style="fill:#f7f8f9;"/><path d="M429.14,69.24l-1.4-.38c-1.73-.48-2.15-.75-2.15-1.48,0-.93.68-1.38,2.05-1.38s2.95.45,4.18,1.18l1.03-1.98c-1.4-.88-3.31-1.38-5.13-1.38-3.13,0-5.03,1.43-5.03,3.83,0,.9.3,1.6.9,2.13.63.53,1.7,1,3.23,1.43l1.58.43c1.58.48,1.95.75,1.95,1.48,0,1.03-.75,1.55-2.28,1.55-1.63,0-3.41-.53-4.88-1.43l-1.05,1.93c1.6,1.08,3.71,1.68,5.84,1.68,3.31,0,5.23-1.45,5.23-3.96,0-1.88-1.13-2.85-4.06-3.66Z" style="fill:#f7f8f9;"/><path d="M439.13,80.16l2.38-4.03c.18-.28.25-.58.25-.85,0-.88-.78-1.58-1.7-1.58s-1.68.7-1.68,1.58c0,.63.35,1.15.95,1.43l-1.13,3.03.93.43Z" style="fill:#f7f8f9;"/><path d="M465.62,66.39l-1.9-.53c-2.78-.75-3.28-1.15-3.28-2.08,0-1.43,1.28-2.13,3.16-2.13,1.78,0,4.08.65,5.96,1.65l1.43-2.6c-1.98-1.18-4.61-1.88-7.14-1.88-2.05,0-3.73.45-5.01,1.33-1.28.88-1.93,2.15-1.93,3.86.1,2.86,1.75,3.88,5.91,4.93l1.98.5c2.5.63,3.18.98,3.18,2.18,0,1.63-1.4,2.38-3.53,2.38s-4.71-.7-6.79-1.93l-1.5,2.45c2.2,1.5,5.13,2.33,8.01,2.33,4.43,0,7.24-1.9,7.24-5.41-.1-3.03-1.9-3.98-5.78-5.06Z" style="fill:#f7f8f9;"/><path d="M484.78,63.83c-1.7,0-3.13.63-4.11,1.7v-1.45h-3.06v17.41h3.06v-6.36c.98,1.08,2.4,1.73,4.11,1.73,3.36.08,6.11-2.93,6.04-6.51.08-3.58-2.68-6.59-6.04-6.51ZM486.78,73.15c-.68.73-1.55,1.1-2.63,1.1-1.5,0-2.75-.63-3.48-1.7v-4.41c.73-1.08,1.98-1.7,3.48-1.7,1.08,0,1.95.38,2.63,1.13.68.73,1.03,1.65,1.03,2.78s-.35,2.05-1.03,2.81Z" style="fill:#f7f8f9;"/><path d="M503.19,63.83c-2.03,0-4.06.55-5.79,1.63l.98,2.13c1.33-.88,2.7-1.33,4.11-1.33,1.98,0,3.01.88,3.01,2.55v.15h-4.26c-3.01,0-4.88,1.48-4.88,3.91s1.8,3.98,4.68,3.98c1.68,0,3.16-.55,4.46-1.63v1.38h3.03v-8.09c0-2.98-1.93-4.68-5.33-4.68ZM505.49,73.58c-1.1.7-2.28,1.05-3.56,1.05-1.63,0-2.58-.7-2.58-1.93s.98-1.93,2.65-1.93h3.48v2.81Z" style="fill:#f7f8f9;"/><path d="M526.73,74.15l-2.35-1.3c-.73.9-1.8,1.4-3.11,1.4-2.13,0-3.81-1.73-3.81-3.91s1.68-3.91,3.81-3.91c1.25,0,2.25.43,3.03,1.3l2.33-1.3c-1.28-1.63-3.28-2.6-5.41-2.6-3.61-.08-6.81,2.98-6.74,6.51-.07,3.53,3.13,6.59,6.74,6.51,2.2,0,4.21-1,5.51-2.7Z" style="fill:#f7f8f9;"/><path d="M542.25,73.13c-.93.88-2.18,1.33-3.76,1.33-2.03,0-3.38-1.18-3.71-3.16h10.12v-.95c0-3.73-2.81-6.51-6.59-6.51s-6.59,2.88-6.59,6.49,2.83,6.54,6.66,6.54c2.1,0,4.06-.78,5.53-2.15l-1.68-1.58ZM538.34,66.19c1.03,0,1.9.3,2.58.93.68.6,1.03,1.35,1.03,2.28h-7.16c.28-2,1.58-3.21,3.56-3.21Z" style="fill:#f7f8f9;"/><path d="M573.65,67.99c-.53,1.23-1.13,2.28-1.83,3.21l-3.43-3.63c2.78-1.4,3.86-2.6,3.86-4.68,0-2.33-1.98-4.06-4.66-4.06-2.86,0-5.06,1.95-5.06,4.48,0,1.13.45,2.08,1.55,3.31l.28.3c-3.21,1.6-4.43,3.08-4.43,5.18,0,2.98,2.43,4.76,6.31,4.76,2.13,0,3.96-.58,5.48-1.75l1.58,1.75,2.15-1.83-1.8-1.9c.83-1.08,1.55-2.45,2.23-4.13l-2.23-1ZM567.54,61.08c1.28,0,2.13.73,2.13,1.85s-.5,1.78-2.93,2.9l-.43-.45c-.63-.68-1.1-1.58-1.1-2.3,0-1.13,1-2,2.33-2ZM566.34,74.35c-2,0-3.28-.95-3.28-2.53,0-1.13.73-1.95,2.93-3.08l3.96,4.38c-1.13.83-2.33,1.23-3.61,1.23Z" style="fill:#f7f8f9;"/><polygon points="177.98 95.44 183.63 95.44 183.63 110.22 186.91 110.22 186.91 95.44 192.56 95.44 192.56 92.57 177.98 92.57 177.98 95.44" style="fill:#f7f8f9;"/><path d="M202.53,97.36c-3.81,0-6.63,2.9-6.63,6.53s2.85,6.58,6.71,6.58c2.12,0,4.09-.78,5.57-2.17l-1.69-1.59c-.93.88-2.19,1.34-3.78,1.34-2.04,0-3.4-1.18-3.73-3.18h10.19v-.96c0-3.76-2.83-6.56-6.63-6.56ZM198.97,102.96c.28-2.02,1.59-3.23,3.58-3.23,1.03,0,1.92.3,2.6.93.68.61,1.03,1.36,1.03,2.3h-7.21Z" style="fill:#f7f8f9;"/><path d="M221.52,107.85c-2.14,0-3.83-1.74-3.83-3.93s1.69-3.93,3.83-3.93c1.26,0,2.27.43,3.05,1.31l2.35-1.31c-1.29-1.64-3.3-2.62-5.45-2.62-3.63-.08-6.86,3-6.78,6.56-.08,3.56,3.15,6.63,6.78,6.56,2.22,0,4.24-1.01,5.55-2.72l-2.37-1.31c-.73.91-1.82,1.41-3.13,1.41Z" style="fill:#f7f8f9;"/><path d="M241.34,97.36c-1.79,0-3.66.66-5.2,1.84v-6.63h-3.08v17.65h3.08v-8.78c1.13-1.01,2.57-1.59,3.91-1.59,1.82,0,2.82,1.06,2.82,2.87v7.49h3.05v-8.37c0-2.8-1.74-4.49-4.59-4.49Z" style="fill:#f7f8f9;"/><path d="M260.76,97.36c-1.79,0-3.66.66-5.2,1.84v-1.59h-3.08v12.61h3.08v-8.78c1.13-1.01,2.57-1.59,3.91-1.59,1.82,0,2.82,1.06,2.82,2.87v7.49h3.05v-8.37c0-2.8-1.74-4.49-4.59-4.49Z" style="fill:#f7f8f9;"/><path d="M278.34,97.36c-3.91,0-6.99,2.85-6.99,6.56s3.08,6.56,6.99,6.56c3.91.08,7.11-2.9,7.04-6.56.08-3.66-3.13-6.63-7.04-6.56ZM278.34,107.85c-2.24,0-3.96-1.71-3.96-3.93s1.72-3.93,3.96-3.93,4.01,1.72,4.01,3.93-1.72,3.93-4.01,3.93Z" style="fill:#f7f8f9;"/><rect x="291.55" y="92.57" width="3.08" height="17.65" style="fill:#f7f8f9;"/><path d="M307.82,97.36c-3.91,0-6.99,2.85-6.99,6.56s3.08,6.56,6.99,6.56c3.91.08,7.11-2.9,7.04-6.56.08-3.66-3.13-6.63-7.04-6.56ZM307.82,107.85c-2.24,0-3.96-1.71-3.96-3.93s1.72-3.93,3.96-3.93,4.01,1.72,4.01,3.93-1.72,3.93-4.01,3.93Z" style="fill:#f7f8f9;"/><path d="M330.62,99.07c-.98-1.08-2.42-1.71-4.14-1.71-3.4-.08-6.13,2.93-6.08,6.53-.08,3.61,2.7,6.61,6.08,6.53,1.72,0,3.15-.63,4.14-1.71v.55c0,2.55-1.56,3.78-3.91,3.78-1.82,0-3.46-.45-4.94-1.39l-.98,2.14c1.79,1.09,3.91,1.64,6.36,1.64,1.94,0,3.53-.5,4.72-1.54,1.21-1.03,1.82-2.57,1.82-4.64v-11.65h-3.05v1.46ZM330.62,106.11c-.73,1.08-1.99,1.71-3.51,1.71-1.08,0-1.97-.38-2.65-1.11-.68-.76-1.03-1.69-1.03-2.83,0-2.22,1.56-3.93,3.68-3.93,1.51,0,2.77.63,3.51,1.71v4.44Z" style="fill:#f7f8f9;"/><path d="M346.13,106.92l-3.73-9.31h-3.23l5.6,13.01-.2.4c-.78,1.44-1.51,2.02-2.7,2.02-.63,0-1.31-.15-2.07-.45l-.88,2.12c1.24.45,2.37.68,3.35.68,2.32,0,3.91-1.24,4.99-3.93l5.57-13.85h-3.18l-3.53,9.31Z" style="fill:#f7f8f9;"/><path d="M376.67,95.39c1.82,0,3.51.83,4.59,2.22l2.72-1.72c-1.69-2.22-4.39-3.58-7.34-3.58-4.99-.1-9.38,4.19-9.28,9.08-.1,4.89,4.29,9.18,9.28,9.08,2.95,0,5.65-1.36,7.34-3.58l-2.72-1.77c-1.13,1.41-2.77,2.27-4.59,2.27-3.3,0-5.85-2.7-5.85-6s2.55-6,5.85-6Z" style="fill:#f7f8f9;"/><path d="M396.37,97.36c-3.91,0-6.99,2.85-6.99,6.56s3.08,6.56,6.99,6.56c3.91.08,7.11-2.9,7.04-6.56.08-3.66-3.13-6.63-7.04-6.56ZM396.37,107.85c-2.24,0-3.96-1.71-3.96-3.93s1.72-3.93,3.96-3.93,4.01,1.72,4.01,3.93-1.72,3.93-4.01,3.93Z" style="fill:#f7f8f9;"/><path d="M426.63,97.36c-1.94,0-3.58.55-5.32,2.04-.71-1.34-2.09-2.04-3.78-2.04s-3.38.66-4.89,1.97v-1.71h-3.08v12.61h3.08v-9c1.21-.98,2.24-1.36,3.56-1.36,1.61,0,2.62,1.03,2.62,2.87v7.49h3.05v-7.24c0-.63-.05-1.24-.18-1.77,1.11-.91,2.37-1.36,3.76-1.36,1.61,0,2.6,1.03,2.6,2.87v7.49h3.08v-8.37c0-2.9-1.84-4.49-4.49-4.49Z" style="fill:#f7f8f9;"/><path d="M454.73,97.36c-1.94,0-3.58.55-5.32,2.04-.71-1.34-2.09-2.04-3.78-2.04s-3.38.66-4.89,1.97v-1.71h-3.08v12.61h3.08v-9c1.21-.98,2.24-1.36,3.56-1.36,1.61,0,2.62,1.03,2.62,2.87v7.49h3.05v-7.24c0-.63-.05-1.24-.18-1.77,1.11-.91,2.37-1.36,3.76-1.36,1.61,0,2.6,1.03,2.6,2.87v7.49h3.08v-8.37c0-2.9-1.84-4.49-4.49-4.49Z" style="fill:#f7f8f9;"/><rect x="466" y="97.61" width="3.05" height="12.61" style="fill:#f7f8f9;"/><path d="M467.51,92.84c-.93,0-1.69.68-1.69,1.56s.76,1.56,1.69,1.56,1.66-.68,1.66-1.56c0-.83-.76-1.56-1.66-1.56Z" style="fill:#f7f8f9;"/><path d="M482.06,102.8l-1.41-.38c-1.74-.48-2.17-.76-2.17-1.49,0-.93.68-1.39,2.07-1.39s2.98.45,4.21,1.19l1.03-1.99c-1.41-.88-3.33-1.39-5.17-1.39-3.15,0-5.07,1.44-5.07,3.86,0,.91.3,1.61.91,2.14.63.53,1.71,1.01,3.25,1.44l1.59.43c1.59.48,1.97.76,1.97,1.49,0,1.03-.76,1.56-2.3,1.56-1.64,0-3.43-.53-4.92-1.44l-1.06,1.94c1.61,1.09,3.73,1.69,5.88,1.69,3.33,0,5.27-1.46,5.27-3.99,0-1.89-1.13-2.87-4.09-3.68Z" style="fill:#f7f8f9;"/><path d="M498.36,102.8l-1.41-.38c-1.74-.48-2.17-.76-2.17-1.49,0-.93.68-1.39,2.07-1.39s2.98.45,4.21,1.19l1.03-1.99c-1.41-.88-3.33-1.39-5.17-1.39-3.15,0-5.07,1.44-5.07,3.86,0,.91.3,1.61.91,2.14.63.53,1.71,1.01,3.25,1.44l1.59.43c1.59.48,1.97.76,1.97,1.49,0,1.03-.76,1.56-2.3,1.56-1.64,0-3.43-.53-4.92-1.44l-1.06,1.94c1.61,1.09,3.73,1.69,5.88,1.69,3.33,0,5.27-1.46,5.27-3.99,0-1.89-1.13-2.87-4.09-3.68Z" style="fill:#f7f8f9;"/><path d="M510.31,92.84c-.93,0-1.69.68-1.69,1.56s.76,1.56,1.69,1.56,1.66-.68,1.66-1.56c0-.83-.76-1.56-1.66-1.56Z" style="fill:#f7f8f9;"/><rect x="508.8" y="97.61" width="3.05" height="12.61" style="fill:#f7f8f9;"/><path d="M525.21,97.36c-3.91,0-6.99,2.85-6.99,6.56s3.08,6.56,6.99,6.56c3.91.08,7.11-2.9,7.04-6.56.08-3.66-3.13-6.63-7.04-6.56ZM525.21,107.85c-2.24,0-3.96-1.71-3.96-3.93s1.72-3.93,3.96-3.93,4.01,1.72,4.01,3.93-1.72,3.93-4.01,3.93Z" style="fill:#f7f8f9;"/><path d="M546.7,97.36c-1.79,0-3.66.66-5.2,1.84v-1.59h-3.08v12.61h3.08v-8.78c1.13-1.01,2.57-1.59,3.91-1.59,1.82,0,2.82,1.06,2.82,2.87v7.49h3.05v-8.37c0-2.8-1.74-4.49-4.59-4.49Z" style="fill:#f7f8f9;"/><rect x="149.87" width="1.78" height="133.22" style="fill:#f7f8f9;"/><path d="M54.74,72.9c-1.61,1.61-3.84,2.61-6.3,2.61-4.92,0-8.91-3.99-8.91-8.91s3.99-8.91,8.91-8.91c2.46,0,4.69,1,6.3,2.61l6.3-6.3c-3.22-3.22-7.68-5.22-12.6-5.22-9.84,0-17.82,7.98-17.82,17.82s7.98,17.82,17.82,17.82c4.92,0,9.37-1.99,12.6-5.22l-6.3-6.3Z" style="fill:#f7f8f9;"/><polygon points="123.54 48.94 97.71 48.94 97.71 57.84 111.28 57.84 106.17 60.76 106.17 84.36 115.08 84.36 115.08 57.84 123.54 57.84 123.54 48.94" style="fill:#f7f8f9;"/><path d="M6.66,44.92l-.61-.28c-.14.28-.28.56-.41.85l.55.28c.15-.29.3-.57.46-.85Z" style="fill:#00d2ff;"/><path d="M6.4,36.76l-.92-.6c-.14.21-.28.41-.42.62l.87.59c.15-.21.31-.41.47-.61Z" style="fill:#00d2ff;"/><path d="M6.22,40.99l-.56-.31c-.14.24-.28.47-.41.71l.51.3c.15-.24.3-.47.46-.7Z" style="fill:#00d2ff;"/><path d="M8.33,42.14l-.71-.39c-.15.25-.3.51-.44.77l.67.39c.16-.26.32-.52.48-.77Z" style="fill:#00d2ff;"/><path d="M7.27,48.88l-.38-.14c-.11.27-.21.54-.31.82l.31.14c.12-.27.25-.54.37-.81Z" style="fill:#00d2ff;"/><path d="M7.19,38.22l.66.45c.16-.22.33-.43.5-.64l-.7-.46c-.15.22-.31.43-.45.65Z" style="fill:#00d2ff;"/><path d="M3.43,39.45c-.12.22-.24.43-.36.65l.74.44c.14-.22.27-.44.41-.65l-.79-.44Z" style="fill:#00d2ff;"/><path d="M8.8,33.81l-1.04-.79c-.21.26-.41.53-.62.8l.99.77c.11-.13.21-.26.32-.39.11-.13.23-.25.34-.38Z" style="fill:#00d2ff;"/><path d="M5.08,48.06l-.46-.17c-.09.23-.18.47-.27.7l.41.18c.1-.24.21-.47.32-.71Z" style="fill:#00d2ff;"/><path d="M14.21,28.54l-1.2-1.25c-.37.35-.74.7-1.1,1.06l1.16,1.17c.38-.33.76-.66,1.14-.99Z" style="fill:#00d2ff;"/><path d="M11.85,37.46c.23-.27.46-.53.7-.79l-.9-.68c-.22.27-.44.54-.66.81l.85.66Z" style="fill:#00d2ff;"/><path d="M12.32,33.56c.3-.29.6-.58.91-.87l-.96-.86c-.29.3-.56.62-.84.93l.9.79Z" style="fill:#00d2ff;"/><path d="M10.94,40.76l.86.58c.18-.24.36-.48.54-.72l-.91-.59c-.16.24-.33.49-.49.73Z" style="fill:#00d2ff;"/><path d="M10.33,39.32l-.81-.53c-.16.23-.32.46-.48.69l.77.52c.17-.23.34-.46.52-.68Z" style="fill:#00d2ff;"/><path d="M9.85,34.61c-.12.14-.24.28-.35.43-.1.12-.19.25-.28.37l.78.61c.23-.26.46-.51.69-.77l-.84-.64Z" style="fill:#00d2ff;"/><path d="M4.46,43.91l-.42-.19c-.12.25-.24.51-.36.77l.36.18c.14-.26.28-.51.42-.76Z" style="fill:#00d2ff;"/><path d="M9.44,31.01l1.08.95c.29-.3.59-.61.89-.9l-1.13-1.01c-.28.31-.56.63-.83.95Z" style="fill:#00d2ff;"/><path d="M10.42,43.3l-.76-.42c-.16.28-.31.56-.46.84l.69.4c.18-.28.35-.55.53-.82Z" style="fill:#00d2ff;"/><path d="M8.81,45.91l-.59-.27c-.15.31-.29.62-.44.94l.51.26c.17-.31.34-.62.51-.93Z" style="fill:#00d2ff;"/><path d="M18,32.48c-.36.32-.7.65-1.05.98l1,1.01c.34-.33.68-.65,1.03-.96l-.99-1.02Z" style="fill:#00d2ff;"/><path d="M19.26,28.74c-.45.33-.89.68-1.32,1.03l2.31,2.65c.41-.34.82-.67,1.24-1l-2.22-2.68Z" style="fill:#00d2ff;"/><path d="M2.8,47.19l-.25-.09c-.08.2-.15.4-.23.6l.21.09c.09-.2.18-.4.27-.59Z" style="fill:#00d2ff;"/><path d="M19.02,22.35c-.56.4-1.12.8-1.67,1.22l1.28,1.67c.56-.37,1.12-.72,1.69-1.07l-1.31-1.83Z" style="fill:#00d2ff;"/><path d="M15.61,34.81c-.28.3-.56.61-.84.92l1.05.93s.06-.06.09-.1c.25-.27.5-.54.75-.81l-1.06-.94Z" style="fill:#00d2ff;"/><path d="M22.31,20.23c-.67.4-1.33.81-1.98,1.24l4.9,7.32c.56-.35,1.12-.68,1.69-1.01l-4.62-7.55Z" style="fill:#00d2ff;"/><path d="M48.71,13.2c-7.85,0-15.3,1.7-22.01,4.75l4.05,7.91c5.49-2.44,11.57-3.79,17.97-3.79,5.4,0,10.57.96,15.36,2.73l3.07-8.33c-5.74-2.12-11.95-3.28-18.43-3.28Z" style="fill:#00d2ff;"/><path d="M25.75,18.39c-.79.38-1.56.77-2.33,1.18l4.49,7.66c.64-.34,1.28-.66,1.94-.97l-4.11-7.88Z" style="fill:#00d2ff;"/><path d="M20.71,24.72c-.55.36-1.09.74-1.62,1.12l3.57,4.68c.48-.35.97-.68,1.46-1.01l-3.41-4.78Z" style="fill:#00d2ff;"/><path d="M.5,46.9c.07-.16.14-.33.21-.5l-.52-.2c-.06.16-.12.32-.18.48l.5.22Z" style="fill:#00d2ff;"/><path d="M13.99,33.37c-.29.3-.58.6-.86.91l.93.82c.3-.29.6-.58.9-.87l-.97-.86Z" style="fill:#00d2ff;"/><path d="M12.76,38.17l.97.75c.23-.27.47-.54.71-.8l-1.03-.78c-.22.28-.44.55-.65.83Z" style="fill:#00d2ff;"/><path d="M1.42,43.34l.62.32c.12-.23.24-.46.36-.69l-.66-.3c-.11.22-.21.45-.32.68Z" style="fill:#00d2ff;"/><path d="M17.72,26.87c-.46.35-.91.71-1.35,1.09l1.08,1.24c.46-.33.92-.66,1.39-.97l-1.13-1.36Z" style="fill:#00d2ff;"/><path d="M14.89,29.25c-.37.34-.73.68-1.09,1.02l1,1.01c.38-.32.76-.63,1.14-.94l-1.06-1.1Z" style="fill:#00d2ff;"/><path d="M17.55,32.01l-1.02-1.06c-.37.32-.73.65-1.08.98l.98.99c.37-.31.74-.62,1.12-.92Z" style="fill:#00d2ff;"/><path d="M17.19,26.24l-1.26-1.52c-.46.38-.92.77-1.37,1.16l1.22,1.4c.46-.36.94-.7,1.41-1.04Z" style="fill:#00d2ff;"/><path d="M80.11,109.07l-.88-1.16c-.35.24-.7.49-1.05.72l.91,1.21c.34-.25.68-.51,1.02-.77Z" style="fill:#7f92ff;"/><path d="M78.5,106.93l-.73-.96c-.35.23-.71.46-1.07.68l.78,1.04c.34-.25.68-.5,1.02-.76Z" style="fill:#7f92ff;"/><path d="M80.55,99.14l-.76-.77c-.22.2-.45.39-.67.58l.82.8c.21-.2.41-.41.61-.61Z" style="fill:#7f92ff;"/><path d="M76.08,105.83c.35-.24.69-.48,1.03-.73l-.74-.98c-.35.23-.7.46-1.06.68l.77,1.03Z" style="fill:#7f92ff;"/><path d="M77.15,111.22l-.91-1.38c-.44.26-.89.51-1.33.76l.94,1.47c.44-.28.87-.56,1.3-.85Z" style="fill:#7f92ff;"/><path d="M82.92,106.73l-.82-.95c-.16.13-.32.27-.49.39-.1.08-.21.15-.31.23l.85.97c.25-.22.51-.43.76-.66Z" style="fill:#7f92ff;"/><path d="M80.76,105.13c.15-.13.29-.26.44-.39l-.65-.75c-.27.21-.55.42-.83.62l.7.8c.11-.09.23-.18.34-.28Z" style="fill:#7f92ff;"/><path d="M82.85,96.59l-.65-.58c-.22.23-.44.47-.66.69l.71.6c.2-.23.4-.47.6-.71Z" style="fill:#7f92ff;"/><path d="M82.15,100.76l-.63-.64c-.21.19-.42.37-.63.56l.67.66c.2-.19.4-.38.59-.58Z" style="fill:#7f92ff;"/><path d="M83.73,102.37l-.56-.57c-.2.18-.4.35-.6.53l.6.59c.19-.18.38-.36.56-.55Z" style="fill:#7f92ff;"/><path d="M76.57,101.02l.88,1c.27-.23.54-.46.8-.69l-.84-.97c-.28.22-.56.45-.84.66Z" style="fill:#7f92ff;"/><path d="M72.66,110.74l-.82-1.45c-.52.24-1.05.47-1.59.7l.85,1.57c.53-.26,1.05-.54,1.56-.82Z" style="fill:#7f92ff;"/><path d="M67.94,113.71l.93,2.07c.65-.29,1.29-.58,1.92-.89l-.93-1.91c-.63.26-1.27.5-1.92.73Z" style="fill:#7f92ff;"/><path d="M60.99,109.19c-.71.21-1.44.41-2.17.59l2.5,8.61c.87-.22,1.74-.46,2.59-.72l-2.92-8.48Z" style="fill:#7f92ff;"/><path d="M74.35,106.97l-.77-1.17c-.43.24-.86.47-1.3.69l.79,1.24c.43-.25.85-.5,1.27-.77Z" style="fill:#7f92ff;"/><path d="M79.71,103.02l-.69-.8c-.28.22-.56.43-.84.63l.73.84c.27-.22.54-.44.8-.67Z" style="fill:#7f92ff;"/><path d="M75.65,108.94l-.79-1.2c-.44.24-.88.48-1.32.71l.83,1.29c.43-.26.86-.53,1.28-.81Z" style="fill:#7f92ff;"/><path d="M74.04,113.16l-.93-1.63c-.54.26-1.08.52-1.62.76l.95,1.76c.54-.29,1.08-.58,1.6-.89Z" style="fill:#7f92ff;"/><path d="M71.94,105.94c.42-.25.83-.5,1.24-.76l-.81-1.22c-.4.26-.81.51-1.22.76l.79,1.23Z" style="fill:#7f92ff;"/><path d="M91.72,95.6l.47.3c.08-.13.16-.26.25-.39l-.44-.31c-.09.13-.18.27-.28.41Z" style="fill:#7f92ff;"/><path d="M89.96,99.07c.14-.19.29-.38.43-.57l-.55-.43c-.16.19-.31.39-.47.58l.58.43Z" style="fill:#7f92ff;"/><path d="M74.78,104.09c.34-.24.68-.49,1.01-.74l-.87-1.15c-.08.05-.16.11-.24.17,0,0,0,0,0,0-.26.19-.52.37-.78.55l.88,1.17Z" style="fill:#7f92ff;"/><path d="M90.35,94.04l-.19-.13c-.12.17-.23.33-.35.49l.23.14c.11-.17.21-.34.31-.5Z" style="fill:#7f92ff;"/><path d="M69.93,109.4c.51-.25,1.02-.5,1.53-.77l-1.76-3.09c-.47.26-.95.51-1.44.76l1.67,3.1Z" style="fill:#7f92ff;"/><path d="M84.58,98.14l-.54-.49c-.2.22-.4.43-.61.64l.59.5c.19-.22.38-.43.57-.65Z" style="fill:#7f92ff;"/><path d="M65.16,117.26c.76-.27,1.5-.55,2.25-.85l-3.4-8.22c-.63.24-1.27.46-1.92.67l3.07,8.41Z" style="fill:#7f92ff;"/><path d="M67.67,113.11c.62-.25,1.24-.52,1.86-.8l-2.61-5.35c-.55.25-1.11.5-1.67.73l2.43,5.42Z" style="fill:#7f92ff;"/><path d="M57.87,110c-3.13.69-6.37,1.06-9.71,1.06-8.61,0-16.66-2.43-23.48-6.64l-4.7,7.63c8.19,5.05,17.85,7.97,28.18,7.97,4.18,0,8.24-.48,12.14-1.38l-2.43-8.64Z" style="fill:#7f92ff;"/><path d="M86.25,99.63l-.44-.4c-.19.2-.38.39-.57.59l.48.41c.18-.2.35-.4.53-.6Z" style="fill:#7f92ff;"/><path d="M86.1,96.25c.18-.24.37-.48.55-.73l-.44-.35c-.2.24-.4.48-.6.72l.49.36Z" style="fill:#7f92ff;"/><path d="M85.54,104.21l-.73-.74c-.19.17-.38.33-.57.5l.78.76c.17-.17.35-.35.52-.52Z" style="fill:#7f92ff;"/><path d="M84.8,94.06l-.5-.4c-.22.27-.45.52-.68.78l.59.43c.2-.27.4-.54.59-.81Z" style="fill:#7f92ff;"/><path d="M88.52,92.76l-.31-.22c-.14.2-.28.39-.43.59l.36.23c.13-.2.26-.4.38-.6Z" style="fill:#7f92ff;"/><path d="M86.99,101.31l.69.58c.16-.18.31-.37.47-.55l-.64-.57c-.17.18-.35.36-.52.54Z" style="fill:#7f92ff;"/><path d="M87.91,97.57c.17-.22.32-.44.49-.66l-.32-.25c-.18.22-.36.43-.54.64l.37.27Z" style="fill:#7f92ff;"/><path d="M86.21,91.15c-.17.23-.32.47-.49.69l.4.25c.15-.23.3-.46.44-.7l-.35-.25Z" style="fill:#7f92ff;"/><path d="M30.45,86.83c-.31-.24-.61-.5-.91-.76l-.9.89c.28.3.57.59.87.87l.93-1.01Z" style="fill:#5e1ad5;"/><path d="M27.7,84.31l-.76.63c.25.34.52.66.78.98l.84-.74c-.29-.28-.58-.57-.86-.87Z" style="fill:#5e1ad5;"/><path d="M31.2,90.3c-.36-.22-.72-.45-1.07-.68l-.81.98c.34.28.69.56,1.04.83l.83-1.13Z" style="fill:#5e1ad5;"/><path d="M24.68,84.61c-.24-.29-.47-.58-.7-.89l-.37.25c.2.32.41.64.62.95l.45-.32Z" style="fill:#5e1ad5;"/><path d="M28.78,88.64c-.34-.26-.67-.53-.99-.81l-.69.69c.3.32.61.63.93.94l.75-.81Z" style="fill:#5e1ad5;"/><path d="M26.07,87.36l.62-.55c-.31-.3-.61-.61-.91-.93l-.54.45c.27.35.54.69.83,1.02Z" style="fill:#5e1ad5;"/><path d="M62.82,89.54c-4.29,2.72-9.4,4.24-14.85,4.11-1.64-.04-3.25-.23-4.8-.55l-1.91,8.66c2.11.44,4.28.71,6.51.76,7.27.17,14.09-1.86,19.8-5.49l-4.75-7.5Z" style="fill:#5e1ad5;"/><path d="M20.33,86.24l-.52.36c.22.34.44.68.67,1.01l.57-.41c-.25-.31-.49-.63-.73-.96Z" style="fill:#5e1ad5;"/><path d="M40.61,92.45l-2.64,8.41c.6.21,1.2.4,1.81.57.22.06.44.11.66.16l1.98-8.65c-.61-.15-1.22-.31-1.81-.5Z" style="fill:#5e1ad5;"/><path d="M22.33,88.74l-.64.53c.3.38.6.75.92,1.12l.69-.6c-.33-.34-.66-.69-.97-1.04Z" style="fill:#5e1ad5;"/><path d="M30.72,88.92c.31.26.63.51.95.75l.95-1.28c-.32-.21-.63-.42-.94-.64l-.96,1.16Z" style="fill:#5e1ad5;"/><path d="M32.93,93.13l.86-1.47c-.44-.2-.87-.41-1.29-.63l-.87,1.3c.42.28.86.55,1.3.81Z" style="fill:#5e1ad5;"/><path d="M22.87,85.91c-.24-.3-.48-.61-.71-.92l-.36.25c.21.33.43.66.65.98l.42-.3Z" style="fill:#5e1ad5;"/><path d="M26.69,83.18c-.23-.28-.46-.56-.69-.84l-.56.39c.19.32.39.62.59.93l.66-.47Z" style="fill:#5e1ad5;"/><path d="M34.45,97.26c-.6-.24-1.2-.5-1.79-.77l-.84,1.57c.6.35,1.2.68,1.82.99l.8-1.79Z" style="fill:#5e1ad5;"/><path d="M37.68,98.35c-.7-.19-1.39-.41-2.07-.65l-.79,1.9c.71.32,1.42.62,2.15.9l.72-2.15Z" style="fill:#5e1ad5;"/><path d="M35.5,94.94c-.57-.19-1.12-.4-1.66-.63l-.8,1.49c.55.3,1.12.59,1.69.86l.77-1.72Z" style="fill:#5e1ad5;"/><path d="M39.74,92.16c-.53-.19-1.05-.38-1.56-.6l-2.34,5.6c.65.28,1.31.53,1.98.76l1.92-5.76Z" style="fill:#5e1ad5;"/><path d="M32.85,90.5c.39.25.78.5,1.19.73l.81-1.38c-.37-.22-.73-.46-1.09-.7l-.9,1.35Z" style="fill:#5e1ad5;"/><path d="M25.01,88.29c-.32-.32-.64-.65-.94-.98l-.51.42c.28.36.58.72.88,1.07l.58-.51Z" style="fill:#5e1ad5;"/><path d="M34.12,93.78c.51.26,1.04.51,1.57.74l1.53-3.39c-.45-.21-.88-.44-1.31-.67l-1.78,3.33Z" style="fill:#5e1ad5;"/><path d="M28.42,94.06c-.2-.14-.4-.27-.6-.41-.21-.15-.42-.31-.63-.46l-.82.99c.4.34.8.68,1.21,1l.83-1.13Z" style="fill:#5e1ad5;"/><path d="M27.24,90.31c-.36-.29-.7-.59-1.05-.89l-.63.63c.32.34.66.67,1,1l.68-.74Z" style="fill:#5e1ad5;"/><path d="M32.57,93.74c-.47-.23-.94-.47-1.4-.73l-.78,1.16c.46.32.92.62,1.39.91l.78-1.33Z" style="fill:#5e1ad5;"/><path d="M25.68,92c-.37-.31-.74-.64-1.1-.97l-.74.73c.35.37.7.72,1.06,1.07l.78-.84Z" style="fill:#5e1ad5;"/><path d="M31.35,95.83c-.51-.27-1.01-.56-1.5-.85l-.85,1.27c.49.35,1,.69,1.51,1.02l.84-1.44Z" style="fill:#5e1ad5;"/><path d="M29.07,93.18l.75-1.01c-.38-.25-.76-.51-1.14-.78l-.73.89c.19.16.37.32.56.47.19.15.38.29.56.44Z" style="fill:#5e1ad5;"/><path d="M44.01,37.36l-.09-.71c-.47.05-.94.11-1.4.18l.13.84c.45-.11.91-.22,1.36-.31Z" style="fill:blue;"/><path d="M44.33,39.79l-.12-.97c-.45.04-.9.1-1.34.17l.17,1.1c.43-.11.86-.21,1.29-.29Z" style="fill:blue;"/><path d="M25.73,39.02l1.44,1.76c.51-.47,1.04-.91,1.58-1.34l-1.2-1.72c-.62.41-1.22.85-1.81,1.3Z" style="fill:blue;"/><path d="M32.5,39.77l-.85-1.5c-.53.3-1.06.62-1.57.95l1.04,1.57c.45-.35.91-.7,1.38-1.02Z" style="fill:blue;"/><path d="M41.8,32.24l.15.93c.5-.11,1-.21,1.5-.29l-.11-.83c-.51.05-1.03.12-1.54.19Z" style="fill:blue;"/><path d="M34.03,36.02l-.63-1.43c-.55.23-1.1.48-1.64.74l.78,1.51c.49-.29.98-.56,1.49-.82Z" style="fill:blue;"/><path d="M31.29,37.61l-.9-1.59c-.59.32-1.17.66-1.74,1.01l1.09,1.66c.51-.37,1.02-.73,1.55-1.08Z" style="fill:blue;"/><path d="M45.39,31.9l.04.71c.45-.05.9-.09,1.35-.12l-.02-.63c-.46,0-.91.02-1.37.04Z" style="fill:blue;"/><path d="M46.87,34.72l-.02-.43c-.44,0-.88.01-1.33.03l.03.53c.44-.05.87-.09,1.31-.12Z" style="fill:blue;"/><path d="M24.89,39.68c-.41.33-.82.68-1.22,1.03-.21.19-.41.39-.61.59l6.25,6.3c.42-.41.85-.8,1.29-1.18l-5.7-6.74Z" style="fill:blue;"/><path d="M47.05,39.38l-.03-.68c-.42,0-.83,0-1.25.01l.05.81c.41-.06.82-.11,1.23-.15Z" style="fill:blue;"/><path d="M43.73,35.12l-.09-.67c-.49.05-.98.12-1.47.19l.12.78c.47-.11.95-.21,1.43-.3Z" style="fill:blue;"/><path d="M46.95,36.94l-.02-.44c-.43,0-.86,0-1.29.02l.03.57c.42-.06.85-.11,1.27-.14Z" style="fill:blue;"/><path d="M40.22,33.6l-.23-1.04c-.51.1-1.02.22-1.52.35l.3,1.14c.48-.16.97-.3,1.45-.44Z" style="fill:blue;"/><path d="M41.22,38.07l-.22-.97c-.45.1-.89.2-1.33.32l.29,1.08c.42-.15.84-.3,1.26-.43Z" style="fill:blue;"/><path d="M41.75,40.44l-.27-1.21c-.42.09-.83.18-1.25.29l.35,1.3c.39-.14.78-.27,1.17-.39Z" style="fill:blue;"/><path d="M32.8,40.29c-.48.28-.95.58-1.41.89l2.05,3.11c.4-.26.8-.5,1.21-.74l-1.84-3.26Z" style="fill:blue;"/><path d="M35,38.22l-.59-1.33c-.5.22-1,.46-1.48.7l.73,1.41c.44-.27.89-.54,1.34-.79Z" style="fill:blue;"/><path d="M36.21,40.95c-.42.19-.83.39-1.23.6l.74,1.42c.38-.19.76-.38,1.14-.56l-.65-1.46Z" style="fill:blue;"/><path d="M22.47,41.88c-6.23,6.39-10.07,15.13-10.07,24.76h8.87c0-7.2,2.86-13.72,7.5-18.51l-6.3-6.25Z" style="fill:blue;"/><path d="M29.07,39.9c-.55.39-1.1.79-1.63,1.21l3.85,4.71c.41-.33.83-.64,1.26-.95l-3.49-4.98Z" style="fill:blue;"/><path d="M36.6,34.83c.12-.05.23-.09.35-.13l-.41-1.26c-.5.16-1,.33-1.5.51l.52,1.34c.35-.16.69-.31,1.05-.45Z" style="fill:blue;"/><path d="M35.95,40.38l-.62-1.4c-.46.21-.91.43-1.35.66l.77,1.48c.39-.26.79-.5,1.2-.74Z" style="fill:blue;"/><path d="M37.68,36.92l-.37-1.12c-.1.03-.21.06-.32.1-.36.12-.71.25-1.06.38l.47,1.22c.42-.2.84-.39,1.27-.57Z" style="fill:blue;"/><path d="M39.15,41.39l-.46-1.4c-.39.13-.77.26-1.16.41l.57,1.47c.35-.17.69-.33,1.05-.48Z" style="fill:blue;"/><path d="M38.41,39.13l-.4-1.21c-.42.14-.84.29-1.26.45l.5,1.3c.38-.19.77-.37,1.15-.54Z" style="fill:blue;"/><path d="M40.72,35.83l-.2-.89c-.48.1-.95.21-1.42.33l.27,1c.45-.16.9-.31,1.36-.44Z" style="fill:blue;"/><path d="M81.28,62.92c-3.5-.8-6.52-1.49-6.52-3.39,0-2.6,3.43-2.98,5.47-2.98,2.18,0,4.39.48,6.6,1.43l.18.08,5.7-5.69-.63-.41c-3.04-1.92-7.34-3.02-11.79-3.02-8.86,0-14.58,4.31-14.58,10.97,0,7.73,6.94,9.34,12.53,10.64,3.5.81,6.53,1.52,6.53,3.46,0,2.39-3.48,2.75-5.56,2.75-2.92,0-6.09-.81-8.68-2.22l-.18-.1-5.55,5.55.55.43c3.09,2.4,8.51,3.95,13.81,3.95,10.83,0,14.67-5.88,14.67-10.92,0-7.65-6.94-9.24-12.54-10.52Z" style="fill:#f7f8f9;"/></g></svg>